<?xml version="1.0" encoding="utf-8"?>
<!-- Generator: Adobe Illustrator 21.0.0, SVG Export Plug-In . SVG Version: 6.00 Build 0)  -->
<svg version="1.1" id="Layer_1" xmlns="http://www.w3.org/2000/svg" xmlns:xlink="http://www.w3.org/1999/xlink" x="0px" y="0px"
	 viewBox="0 0 150 150" style="enable-background:new 0 0 150 150;" xml:space="preserve">
<style type="text/css">
	.st0{fill:#330A0A;}
	.st1{fill:#FFFFFF;}
</style>
<g>
	<rect x="-1.6" y="-1.6" class="st0" width="153.2" height="153.2"/>
	<g>
		<g>
			<g>
				<path class="st1" d="M34.5,44.5v5.4h-2V36.6h2.3c1.1,0,1.9,0.1,2.5,0.2c0.6,0.2,1.1,0.4,1.5,0.9c0.8,0.7,1.1,1.7,1.1,2.8
					c0,1.2-0.4,2.2-1.2,2.9c-0.8,0.7-1.9,1.1-3.3,1.1H34.5z M34.5,42.6h0.7c1.8,0,2.7-0.7,2.7-2.1c0-1.4-0.9-2-2.8-2h-0.7V42.6z"/>
				<path class="st1" d="M42,43.2c0-1.9,0.7-3.5,2-4.8c1.4-1.3,3-2,4.9-2c1.9,0,3.5,0.7,4.8,2c1.3,1.3,2,3,2,4.8
					c0,1.9-0.7,3.5-2,4.8c-1.4,1.3-3,2-4.9,2c-1.7,0-3.2-0.6-4.6-1.8C42.8,47,42,45.3,42,43.2z M44,43.2c0,1.5,0.5,2.7,1.5,3.6
					c1,0.9,2.1,1.4,3.4,1.4c1.4,0,2.6-0.5,3.5-1.4c1-1,1.4-2.1,1.4-3.5c0-1.4-0.5-2.6-1.4-3.5c-0.9-1-2.1-1.4-3.5-1.4
					c-1.4,0-2.5,0.5-3.5,1.4C44.5,40.6,44,41.8,44,43.2z"/>
				<path class="st1" d="M60.7,36.6v7.9c0,1.1,0.2,2,0.6,2.5c0.6,0.8,1.3,1.1,2.3,1.1c1,0,1.8-0.4,2.3-1.1c0.4-0.5,0.6-1.3,0.6-2.5
					v-7.9h2v8.5c0,1.4-0.4,2.5-1.3,3.4c-1,1-2.2,1.5-3.6,1.5c-1.4,0-2.6-0.5-3.6-1.5c-0.9-0.9-1.3-2-1.3-3.4v-8.5H60.7z"/>
				<path class="st1" d="M79.1,38.6l-1.6,1c-0.3-0.5-0.6-0.9-0.9-1c-0.3-0.2-0.7-0.3-1.1-0.3c-0.6,0-1,0.2-1.4,0.5
					c-0.4,0.3-0.5,0.7-0.5,1.2c0,0.6,0.5,1.2,1.4,1.6l1.3,0.5c1.1,0.4,1.9,1,2.3,1.6c0.5,0.6,0.7,1.4,0.7,2.3c0,1.2-0.4,2.2-1.2,3
					c-0.8,0.8-1.8,1.2-3,1.2c-1.1,0-2.1-0.3-2.8-1c-0.7-0.7-1.2-1.6-1.4-2.9l2-0.4c0.1,0.8,0.3,1.3,0.5,1.6c0.4,0.6,1,0.9,1.8,0.9
					c0.6,0,1.1-0.2,1.5-0.6c0.4-0.4,0.6-0.9,0.6-1.6c0-0.3,0-0.5-0.1-0.7c-0.1-0.2-0.2-0.4-0.3-0.6c-0.2-0.2-0.3-0.3-0.6-0.5
					c-0.2-0.2-0.5-0.3-0.9-0.4l-1.3-0.5c-1.8-0.8-2.7-1.9-2.7-3.3c0-1,0.4-1.8,1.1-2.5c0.8-0.7,1.7-1,2.8-1
					C77,36.4,78.2,37.1,79.1,38.6z"/>
				<path class="st1" d="M89.9,46.6h-5.6l-1.5,3.2h-2.1l6.5-14l6.3,14h-2.2L89.9,46.6z M89.1,44.7l-2-4.5l-2.1,4.5H89.1z"/>
				<path class="st1" d="M95.8,49.8V36.6h2.8c1.3,0,2.4,0.1,3.1,0.4c0.8,0.3,1.6,0.7,2.2,1.3c1.4,1.2,2,2.9,2,4.9
					c0,2-0.7,3.7-2.1,4.9c-0.7,0.6-1.5,1.1-2.2,1.3c-0.7,0.2-1.8,0.4-3.1,0.4H95.8z M97.8,47.9h0.9c0.9,0,1.6-0.1,2.2-0.3
					c0.6-0.2,1.1-0.5,1.6-0.9c1-0.9,1.5-2.1,1.5-3.5c0-1.4-0.5-2.6-1.5-3.5c-0.9-0.8-2.2-1.2-3.9-1.2h-0.9V47.9z"/>
				<path class="st1" d="M115.9,46.6h-5.6l-1.5,3.2h-2.1l6.5-14l6.3,14h-2.2L115.9,46.6z M115.1,44.7l-2-4.5l-2.1,4.5H115.1z"/>
			</g>
		</g>
		<g>
			<g>
				<path class="st1" d="M15.3,79.8l2.8-14.2l4.5,10.3l4.7-10.3l2.5,14.2h-2l-1.3-8l-3.9,8.6l-3.8-8.6l-1.4,8H15.3z"/>
				<path class="st1" d="M32,73.2c0-1.9,0.7-3.5,2-4.8c1.4-1.3,3-2,4.9-2c1.9,0,3.5,0.7,4.8,2c1.3,1.3,2,3,2,4.8
					c0,1.9-0.7,3.5-2,4.8c-1.4,1.3-3,2-4.9,2c-1.7,0-3.2-0.6-4.6-1.8C32.7,77,32,75.3,32,73.2z M34,73.2c0,1.5,0.5,2.7,1.5,3.6
					c1,0.9,2.1,1.4,3.4,1.4c1.4,0,2.6-0.5,3.5-1.4c1-1,1.4-2.1,1.4-3.5c0-1.4-0.5-2.6-1.4-3.5c-0.9-1-2.1-1.4-3.5-1.4
					c-1.4,0-2.5,0.5-3.5,1.4C34.4,70.6,34,71.8,34,73.2z"/>
				<path class="st1" d="M55.7,68.6l-1.6,1c-0.3-0.5-0.6-0.9-0.9-1c-0.3-0.2-0.7-0.3-1.1-0.3c-0.6,0-1,0.2-1.4,0.5
					c-0.4,0.3-0.5,0.7-0.5,1.2c0,0.6,0.5,1.2,1.4,1.6L53,72c1.1,0.4,1.9,1,2.3,1.6c0.5,0.6,0.7,1.4,0.7,2.3c0,1.2-0.4,2.2-1.2,3
					c-0.8,0.8-1.8,1.2-3,1.2c-1.1,0-2.1-0.3-2.8-1c-0.7-0.7-1.2-1.6-1.4-2.9l2-0.4c0.1,0.8,0.3,1.3,0.5,1.6c0.4,0.6,1,0.9,1.8,0.9
					c0.6,0,1.1-0.2,1.5-0.6c0.4-0.4,0.6-0.9,0.6-1.6c0-0.3,0-0.5-0.1-0.7c-0.1-0.2-0.2-0.4-0.3-0.6c-0.2-0.2-0.3-0.3-0.6-0.5
					c-0.2-0.2-0.5-0.3-0.9-0.4l-1.3-0.5c-1.8-0.8-2.7-1.9-2.7-3.3c0-1,0.4-1.8,1.1-2.5c0.8-0.7,1.7-1,2.8-1
					C53.7,66.4,54.9,67.1,55.7,68.6z"/>
				<path class="st1" d="M62.8,68.5v11.3h-2V68.5h-3v-1.9h8v1.9H62.8z"/>
				<path class="st1" d="M75.6,68.5h-5.3v3.2h5.1v1.9h-5.1v4.4h5.3v1.9h-7.3V66.6h7.3V68.5z"/>
				<path class="st1" d="M80.9,66.6v13.2h-2V66.6H80.9z"/>
				<path class="st1" d="M88.5,74.2l4.1,5.6h-2.4l-3.8-5.4H86v5.4h-2V66.6h2.3c1.7,0,3,0.3,3.8,1c0.9,0.7,1.3,1.7,1.3,2.9
					c0,0.9-0.3,1.7-0.8,2.4C90.1,73.6,89.4,74,88.5,74.2z M86,72.7h0.6c1.9,0,2.8-0.7,2.8-2.2c0-1.3-0.9-2-2.8-2H86V72.7z"/>
				<path class="st1" d="M93.6,73.2c0-1.9,0.7-3.5,2-4.8c1.4-1.3,3-2,4.9-2c1.9,0,3.5,0.7,4.8,2c1.3,1.3,2,3,2,4.8
					c0,1.9-0.7,3.5-2,4.8c-1.4,1.3-3,2-4.9,2c-1.7,0-3.2-0.6-4.6-1.8C94.3,77,93.6,75.3,93.6,73.2z M95.6,73.2
					c0,1.5,0.5,2.7,1.5,3.6c1,0.9,2.1,1.4,3.4,1.4c1.4,0,2.6-0.5,3.5-1.4c1-1,1.4-2.1,1.4-3.5c0-1.4-0.5-2.6-1.4-3.5
					c-0.9-1-2.1-1.4-3.5-1.4c-1.4,0-2.5,0.5-3.5,1.4C96.1,70.6,95.6,71.8,95.6,73.2z"/>
				<path class="st1" d="M115.3,79.8V66.6h2.8c1.3,0,2.4,0.1,3.1,0.4c0.8,0.3,1.6,0.7,2.2,1.3c1.4,1.2,2,2.9,2,4.9
					c0,2-0.7,3.7-2.1,4.9c-0.7,0.6-1.5,1.1-2.2,1.3c-0.7,0.2-1.8,0.4-3.1,0.4H115.3z M117.3,77.9h0.9c0.9,0,1.6-0.1,2.2-0.3
					c0.6-0.2,1.1-0.5,1.6-0.9c1-0.9,1.5-2.1,1.5-3.5c0-1.4-0.5-2.6-1.5-3.5c-0.9-0.8-2.2-1.2-3.9-1.2h-0.9V77.9z"/>
				<path class="st1" d="M135.3,68.5H130v3.2h5.1v1.9H130v4.4h5.3v1.9H128V66.6h7.3V68.5z"/>
			</g>
		</g>
		<g>
			<g>
				<path class="st1" d="M46.3,106.8h-5.6l-1.5,3.2h-2.1l6.5-14l6.3,14h-2.2L46.3,106.8z M45.5,104.9l-2-4.5l-2.1,4.5H45.5z"/>
				<path class="st1" d="M51.8,110l2.8-14.2l4.5,10.3l4.7-10.3l2.5,14.2h-2l-1.3-8l-3.9,8.6l-3.8-8.6l-1.4,8H51.8z"/>
				<path class="st1" d="M77.5,106.8h-5.6l-1.5,3.2h-2.1l6.5-14l6.3,14h-2.2L77.5,106.8z M76.7,104.9l-2-4.5l-2.1,4.5H76.7z"/>
				<path class="st1" d="M87.9,104.4L92,110h-2.4l-3.8-5.4h-0.4v5.4h-2V96.8h2.3c1.7,0,3,0.3,3.8,1c0.9,0.7,1.3,1.7,1.3,2.9
					c0,0.9-0.3,1.7-0.8,2.4C89.5,103.7,88.8,104.2,87.9,104.4z M85.4,102.8H86c1.9,0,2.8-0.7,2.8-2.2c0-1.3-0.9-2-2.8-2h-0.7V102.8z
					"/>
				<path class="st1" d="M101.6,98.7h-5.3v3.2h5.1v1.9h-5.1v4.4h5.3v1.9h-7.3V96.8h7.3V98.7z"/>
				<path class="st1" d="M112.4,98.8l-1.6,1c-0.3-0.5-0.6-0.9-0.9-1c-0.3-0.2-0.7-0.3-1.1-0.3c-0.6,0-1,0.2-1.4,0.5
					c-0.4,0.3-0.5,0.7-0.5,1.2c0,0.6,0.5,1.2,1.4,1.6l1.3,0.5c1.1,0.4,1.9,1,2.3,1.6c0.5,0.6,0.7,1.4,0.7,2.3c0,1.2-0.4,2.2-1.2,3
					c-0.8,0.8-1.8,1.2-3,1.2c-1.1,0-2.1-0.3-2.8-1c-0.7-0.7-1.2-1.6-1.4-2.9l2-0.4c0.1,0.8,0.3,1.3,0.5,1.6c0.4,0.6,1,0.9,1.8,0.9
					c0.6,0,1.1-0.2,1.5-0.6c0.4-0.4,0.6-0.9,0.6-1.6c0-0.3,0-0.5-0.1-0.7c-0.1-0.2-0.2-0.4-0.3-0.6c-0.2-0.2-0.3-0.3-0.6-0.5
					c-0.2-0.2-0.5-0.3-0.9-0.4l-1.3-0.5c-1.8-0.8-2.7-1.9-2.7-3.3c0-1,0.4-1.8,1.1-2.5c0.8-0.7,1.7-1,2.8-1
					C110.3,96.5,111.5,97.3,112.4,98.8z"/>
			</g>
		</g>
	</g>
</g>
</svg>
