<?xml version="1.0" encoding="utf-8"?>
<!-- Generator: Adobe Illustrator 21.0.0, SVG Export Plug-In . SVG Version: 6.00 Build 0)  -->
<svg version="1.1" id="Layer_1" xmlns="http://www.w3.org/2000/svg" xmlns:xlink="http://www.w3.org/1999/xlink" x="0px" y="0px"
	 viewBox="0 0 1675 766.9" style="enable-background:new 0 0 1675 766.9;" xml:space="preserve">
<style type="text/css">
	.st0{fill:#372115;}
	.st1{fill:#F0D1AC;}
	.st2{opacity:0.7;fill:#BE977F;enable-background:new    ;}
	.st3{fill:#E1BD9A;}
	.st4{clip-path:url(#SVGID_2_);}
	.st5{fill:#FFFFFF;}
	.st6{opacity:0.5;}
	.st7{fill:#292B59;}
	.st8{fill:#393A65;}
	.st9{fill:#010445;}
	.st10{fill:#9393C3;}
	.st11{opacity:0.65;}
	.st12{fill:#663C24;}
	.st13{fill:#231F20;}
	.st14{fill:#89251C;}
	.st15{fill:#EB978D;}
	.st16{fill:#BE977F;}
</style>
<g>
	<g>
		<rect x="358.3" y="374.8" class="st0" width="252.7" height="207.8"/>
		<path class="st1" d="M680.6,628.2c-25.2-88.1-100.8-69.1-133.5-93.3c-5.2-3.7-9.2-45.2-10.2-53.4c-0.5-4.5-1-9.2-1.2-14
			c-2-23.7-2.5-49.1-2.5-73.6c0,0-28.4,2.7-51.4,2.7h-0.5c-22.9,0-51.4-2.7-51.4-2.7c0,24.4-0.5,50.1-2.5,74.3
			c-0.5,5-1,9.7-1.2,14.2c-0.7,8-1.7,15.5-3,22.7c-0.5,4.2-1.2,8.2-2.2,12.2c-1.5,7-3.2,13.2-5.2,18.7l-22.9,0.2c-1,0.2-2,0.5-3,0.5
			h-1.2c0,0-9.7,1-23.7,7c-24.2,10-61.9,33.7-86.6,88.8c-15,33.4-25.4,78.6-25.4,139.2c0,0,1.7,0.5,5.5,2.2H480h222.8
			c3.2-1.7,5.2-2.2,5.2-2.2C708,708.5,690.8,664.4,680.6,628.2z"/>
		<path class="st2" d="M537.1,483.8l-0.5,0.2c-5,8-22,30.4-55.4,30.4c-0.2,0-0.2,0-0.2,0c-31.9-0.2-50.4-23.4-55.1-30.4
			c1.2-6.7,1.2-15,2-22.5c0.5-4.5,1.5-8.2,2-13c15.5,4,32.4,6.5,50.6,6.7h0.5c18.5-0.2,35.7-2.7,51.6-7.2c0.5,4.5,2.2,8.5,2.5,13
			C535.9,468.8,535.9,476.8,537.1,483.8z"/>
		<path class="st3" d="M438.3,198.2c-13.7,6-24.9,16.5-37.2,25.7c-12.7,9.5-29.9,31.2-30.4,48.1c-0.5,19.5-3.5,38.4-4.5,57.6
			c-1.5,33.4,10.7,70.6,29.9,97.8c19.7,27.9,46.9,58.4,80.8,68.1c1.2,0,2.5,0,3.7,0L483,148C470.3,155.7,451.8,192.2,438.3,198.2z"
			/>
		<path class="st1" d="M565.8,433.6c23-31.2,30.2-66.1,31.9-104.3c1.7-40.9-21.7-73.1-38.7-109c-8.2-17.5-15-36.2-23.9-53.1
			c-11.5-21.2-35.2,0.7-48.6,9.7c-1.7,1.2-3.7,2.2-5.5,3.2v144.2v171.4C517.4,493.3,545.4,461.3,565.8,433.6z"/>
		<g>
			<g>
				<defs>
					<path id="SVGID_1_" d="M634.4,559.9c-9.5-4.5-19.5-8.5-28.4-11.5c-2.5-0.7-4.7-1.5-7-2.2c-1.7,3-6,29.4-13.7,36.2
						c-0.7,0.7-1.7,1.5-2.5,2.2c-16,13.5-56.6,29.4-109,29.2c-47.6-0.2-85.6-17.5-101.5-29.2c-2.2-1.5-4-3.2-5.7-4.7
						c-7-6.2-10.2-12-11.2-14.2c-0.5,0.2-1.2,0.2-1.7,0.5c-11,3.2-24.2,8.2-36.7,14.2c-27.4,13.2-49.9,31.2-49.9,31.2
						s15,5,24.7,22.5c1.7,3,3,6.2,4.2,9.7c4.2,12.7,7,35.7,8.5,56.9c2.7,39.9,21.7,59.6,23.2,73.8h296.1
						c1.5-14.2,20.5-33.7,23.2-73.8c1.5-21.2,4-44.2,8.5-56.9c1.7-5.2,4-9.5,6.5-13.2c9.5-14.5,22.7-19,22.7-19
						S661.9,573.1,634.4,559.9z"/>
				</defs>
				<clipPath id="SVGID_2_">
					<use xlink:href="#SVGID_1_"  style="overflow:visible;"/>
				</clipPath>
				<g class="st4">
					<rect x="291.4" y="457.8" class="st5" width="370.2" height="370.2"/>
					<g class="st6">
						<path class="st7" d="M467.3,628l-1-9.5l3.7-9c0,0,2.5-4.7,4.7-6c2.2-1.2,8.7-6,8.7-6l1.7-1.5l1-1.7l-4.2-5
							c0.5-4,1.2-5.7,1.2-5.7s-3.2,0.5,2.2,2.5c5.2,2,9,2.7,9,2.7l1.5-1.7c0,0-4-4.5-5.2-4.5s0-1-5-1.5c-5-0.5-7-1.2-7.7-0.2
							c-0.7,1-3.7,2-4.7,4.7c-1,2.7-4.7,4.5-4.7,4.5s5.2-7.5,6.5-8.5s6.5-4.5,6.5-4.5l3.5-2.5l2-5.2c0,0,0.7-1,0.5-2.7
							c-0.2-1.7-1.7-5-1.7-5l-3.2,1.5l2.2-4.7c0,0,4.2,0.2,5.2,2c1,1.7,4.2,3.7,5.5,8.5c1.2,4.7-0.2,1.7,2.7,8.2
							c2.7,6.7,5.5,11.5,5.5,13.2c0.2,1.7-0.2,4.2,0.7,7.2s2.7,6.7,2.7,6.7l8.2,7l10,5.7v4.7l-1.5,6.7l-2.5-2.7c0,0,0.7-5.7-0.2-6.2
							c-1.2-0.5-4-1-5.7-2c-1.7-1-5.5-2.7-5.5-2.7l-2.2-1.2l-7,4l3.2-5.2c0,0,2.5-3,1.5-3.7c-1-0.7-2.5-3-2.5-3l-4.2-2.7l-4.2-1.5
							c0,0,0.7-2-2.2-0.7c-3,1-3,1-3,1s-4.7,2.5-7.2,5.5c-2.5,3-2.2,2.7-3.2,4.5c-1,1.7-2.5,3-3,5c-0.7,2-0.7,1-2,4
							c-1,3-3.2,8-3.2,8l-3.5,1.2"/>
						<path class="st8" d="M495.7,583.3l-1.2-8.7l-3-9.7l-0.7-6.2c0,0-0.2-3,0.2-4.2s0.2-5.2,0.2-5.2v-1.2c0,0,0.7-2.2,1.5-4.2
							c0.7-2,1.7-4.5,1.7-4.5s-0.2-2.7,1.2-3.5s6-3,6-3s0.7-1,2-2c1.2-1,4.5-5,4.5-5l2.2-2.7l2.5,0.5l3.2,3.2l2,4.2l1.2,3.5
							c0,0,3,3.7,5.5,1.5c2.5-2.2,1.7-2.5,3.7-3.5c2-1,6-2.5,7.5-3c1.5-0.2,5.2-1.5,5.2-1.5s-3.5-3.7,2.5,0.5c5.7,4.2,4,2.2,5.7,4.2
							c2,2,3.7,4.2,3.7,4.2l2.5,3.5c0,0,2.2,6,1.7,7.2c-0.5,1.2-0.5,2.7-1.2,7c-0.5,4,0.2,4.5-1,7.7c-1.2,3.5-1.2,7.2-1.2,7.2l6.5,1
							c0,0,5.5,2.5,6.2,4c0.7,1.5,3.7,7.5,3.5,8.5c-0.5,1.2-2,5.2-2,5.2s1.7,1.5-1.7,3.2c-3.2,1.7-3.2,1.7-3.2,1.7h-2.5l-1.5,5
							c0,0,1.2,2.5,0.7,3.7c-0.5,1.2-0.2,3-0.2,3l-1.5,3.7c0,0,0,1.2-1.5,2c-1.5,0.7-5.5,2-6.5,1.5c-1.2-0.5-4.2-1.5-4.2-1.5
							s-1,0.5-2.5,0c-1.5-0.5-3.7-1.5-3.7-1.5l-3.2,0.5l-3,5c0,0-2.5,2.2-3.7,1.7c-1.2-0.5-5-1.7-5.7-3c-0.7-1.2-5.5-5-7.5-5.7
							c-2-0.7-13.2-7.5-14.2-8.2c-1-0.7-4.5-4.7-4.5-4.7c-0.7-2.5-1-8.2-1-8.2L495.7,583.3z"/>
						<path class="st9" d="M510.2,563.9l4.7-2.5l5.7,0.7l7,8.5l3,7.2l-1,1.5c0,0-0.7,1-2.7,0.2s-4.5-1.7-4.5-1.7l-4.2-2.7l-2.7-5.7
							l-1,5.2l5,5.2l3.7,1.7l5.2,2c0,0,0.2,1.7-0.2,3c-0.5,1.2-1.2,3.5-1.2,3.5s-0.2,0.7-0.7,1.5c-0.5,0.7-1.2,1.7-2,2.2
							c-1.7,1-3,2.2-3,2.2l1.2,2.2c0,0,1.5-0.7,2-2.2c0.5-1.5,7.5-8.5,7.5-8.5l1-6.2l0.2-5.5l-3.2-7.7c0,0-0.5-3.2-5.2-6.2
							c-4.5-3-8.7-5.7-8.7-5.7l-4.7,1l-2.5,3.5L510.2,563.9z"/>
					</g>
					<g class="st6">
						<path class="st8" d="M487,792.6l-1.2-8.7l-3-9.7l-0.7-6.2c0,0-0.2-3,0.2-4.2c0.5-1.2,0.2-5.2,0.2-5.2v-1.2
							c0,0,0.7-2.2,1.5-4.2c0.7-2,1.7-4.5,1.7-4.5s-0.2-2.7,1.2-3.5s6-3,6-3s0.7-1,2-2s4.5-5,4.5-5l2.2-2.7l2.5,0.5l3.2,3.2l2,4.2
							l1.2,3.5c0,0,3,3.7,5.5,1.5c2.5-2.2,1.7-2.5,3.7-3.5c2-1,6-2.5,7.5-3c1.5-0.2,5.2-1.5,5.2-1.5s-3.5-3.7,2.5,0.5
							c5.7,4.2,4,2.2,5.7,4.2c2,2,3.7,4.2,3.7,4.2l2.5,3.5c0,0,2.2,6,1.7,7.2c-0.5,1.2-0.5,2.7-1.2,7c-0.5,4,0.2,4.5-1,7.7
							c-1.2,3.5-1.2,7.2-1.2,7.2l6.5,1c0,0,5.5,2.5,6.2,4c0.7,1.5,3.7,7.5,3.5,8.5c-0.5,1.2-2,5.2-2,5.2s1.7,1.5-1.5,3.2
							c-3.2,1.7-3.2,1.7-3.2,1.7h-2.5l-1.5,5c0,0,1.2,2.5,0.7,3.7c-0.5,1.2-0.2,3-0.2,3l-1.5,3.7c0,0,0,1.2-1.5,2
							c-1.5,0.7-5.5,2-6.5,1.5c-1.2-0.5-4.2-1.5-4.2-1.5s-1,0.5-2.5,0c-1.5-0.5-3.7-1.5-3.7-1.5l-3.2,0.5l-3,5c0,0-2.5,2.2-3.7,1.7
							c-1.2-0.5-5-1.7-5.7-3c-1-1.2-5.5-5-7.5-5.7c-2-0.7-13.2-7.5-14.2-8.2c-1-0.7-4.5-4.7-4.5-4.7c-0.7-2.5-1-8.2-1-8.2L487,792.6
							z"/>
					</g>
					<g class="st6">
						<path class="st7" d="M586.5,727.5l-9.5,1l-9-3.7c0,0-4.7-2.5-6-4.7c-1.2-2.2-6-8.7-6-8.7l-1.5-1.7l-1.7-1l-5,4.2
							c-4-0.7-5.7-1.2-5.7-1.2s0.5,3.2,2.5-2.2c2-5.2,2.7-9,2.7-9l-1.7-1.5c0,0-4.5,4-4.5,5.2c0,1.2-1,0-1.5,5s-1.2,7-0.2,7.7
							c1,0.7,2,3.7,4.7,4.7s4.5,4.7,4.5,4.7s-7.5-5.2-8.5-6.5c-0.7-1.2-4.5-6.5-4.5-6.5l-2.5-3.5l-5.2-2c0,0-1-0.7-2.7-0.5
							c-1.7,0.2-5,1.7-5,1.7l1.5,3.2l-4.7-2.2c0,0,0.2-4.2,2-5.2c1.7-1,3.7-4.2,8.5-5.5c4.7-1.2,1.7,0.2,8.2-2.5
							c6.7-2.7,11.5-5.5,13.2-5.5c1.7-0.2,4.2,0.2,7.2-0.7s6.7-2.7,6.7-2.7l7-8.2l5.7-10h4.7l6.7,1.5l-2.7,2.5c0,0-5.7-0.7-6.2,0.2
							c-0.5,1.2-1,4-2,5.7c-1,1.7-2.7,5.5-2.7,5.5l-1.2,2.2l4,7l-5.2-3.2c0,0-3-2.5-3.7-1.5c-0.7,1-3,2.2-3,2.2l-2.7,4.2l-1.5,4.2
							c0,0-2-0.7-0.7,2.2c1,3,1,3,1,3s2.5,4.7,5.5,7.2s2.7,2.2,4.5,3.2c1.7,1,3,2.5,5,3c2,0.7,1,0.7,4,2c3,1,8,3.2,8,3.2l1.2,3.5"/>
						<path class="st10" d="M541.6,699.1l-8.7,1.2l-9.7,3l-6.2,0.7c0,0-3,0.2-4.2-0.2c-1.2-0.5-5.2-0.2-5.2-0.2h-1.2
							c0,0-2.2-0.7-4.2-1.5c-2-0.7-4.5-1.7-4.5-1.7s-2.7,0.2-3.5-1.2s-3-6-3-6s-1-0.7-2-2c-1-1.2-5-4.5-5-4.5l-2.7-2.2l0.5-2.5
							l3.2-3.2l4.2-2l3.5-1.2c0,0,3.7-3,1.5-5.5c-2.2-2.5-2.5-1.7-3.5-3.7s-2.5-6-3-7.5c-0.2-1.5-1.5-5.2-1.5-5.2s-3.7,3.5,0.5-2.5
							c4.2-5.7,2.2-4,4.2-5.7c2-2,4.2-3.7,4.2-3.7l3.5-2.5c0,0,6-2.2,7.2-1.7c1.2,0.5,2.7,0.5,7,1.2c4,0.5,4.5-0.2,7.7,1
							c3.5,1.2,7.2,1.2,7.2,1.2l1-6.5c0,0,2.5-5.5,4-6.2c1.5-0.7,7.5-3.7,8.5-3.5c1.2,0.5,5.2,2,5.2,2s1.5-1.7,3.2,1.5
							c1.7,3.2,1.7,3.2,1.7,3.2v2.5l5.2,1.5c0,0,2.5-1.2,3.7-0.7c1.2,0.5,3,0.2,3,0.2l3.7,1.5c0,0,1.2,0,2,1.5
							c0.7,1.5,2,5.5,1.5,6.5c-0.5,1.2-1.5,4.2-1.5,4.2s0.5,1,0,2.5c-0.5,1.5-1.5,3.7-1.5,3.7l0.5,3.2l5,3c0,0,2.2,2.5,1.7,3.7
							c-0.5,1.2-1.7,5-3,5.7c-1.2,1-5,5.5-5.7,7.5c-0.7,2-7.5,13.2-8.2,14.2c-0.7,1-4.5,4.5-4.5,4.5c-2.5,0.7-8.2,1-8.2,1
							L541.6,699.1z"/>
						<path class="st9" d="M522.2,684.6l-2.5-4.7l0.7-5.7l8.5-7l7.2-3l1.5,1c0,0,1,0.7,0.2,2.7c-0.7,2-1.7,4.5-1.7,4.5l-2.7,4.2
							l-5.7,2.7l5.2,1l5.2-5l1.7-3.7l2-5.2c0,0,1.7-0.2,3,0.2c1.2,0.5,3.5,1.2,3.5,1.2s0.7,0.2,1.5,0.7c0.7,0.5,1.7,1.2,2.2,2
							c1,1.7,2.5,3,2.5,3l2.2-1.2c0,0-0.7-1.5-2.2-2c-1.5-0.5-8.5-7.5-8.5-7.5l-6.2-1l-5.5-0.2l-7.7,3.2c0,0-3.2,0.5-6.2,5.2
							c-3,4.5-5.7,8.7-5.7,8.7l1,4.7l3.5,2.5L522.2,684.6z"/>
					</g>
					<g class="st6">
						<path class="st7" d="M347.3,629.7l1-9.5l-3.7-9c0,0-2.5-4.7-4.7-6c-2.2-1.2-8.7-6-8.7-6l-1.7-1.5l-1-1.7l4.2-5
							c-0.5-4-1.2-5.7-1.2-5.7s3.2,0.5-2.2,2.5c-5.2,2-9,2.7-9,2.7l-1.5-1.7c0,0,4-4.5,5.2-4.5s0-1,5-1.5c5-0.5,7-1.2,7.7-0.2
							c0.7,1,3.7,2,4.7,4.7s4.7,4.5,4.7,4.5s-5.2-7.5-6.5-8.5s-6.5-4.5-6.5-4.5l-3.5-2.5l-2-5.2c0,0-0.7-1-0.5-2.7
							c0.2-1.7,1.7-5,1.7-5l3.2,1.5l-2.2-4.7c0,0-4.2,0.2-5.2,2c-1,1.7-4.2,3.7-5.5,8.5c-1.2,4.7,0.2,1.7-2.7,8.2
							c-2.7,6.7-5.5,11.5-5.5,13.2c-0.2,1.7,0.2,4.2-0.7,7.2c-1,3-2.7,6.7-2.7,6.7l-8.2,7l-10,5.7v4.7l1.5,6.7l2.5-2.7
							c0,0-0.7-5.7,0.2-6.2c1.2-0.5,4-1,5.7-2c1.7-1,5.5-2.7,5.5-2.7l2.2-1.2l7,4l-3.2-5.2c0,0-2.5-3-1.5-3.7c1-0.7,2.2-3,2.2-3
							l4.2-2.7l4.2-1.5c0,0-0.7-2,2.2-0.7c3,1,3,1,3,1s4.7,2.5,7.2,5.7c2.5,3,2.2,2.7,3.2,4.5c1,1.7,2.5,3,3,5c0.7,2,0.7,1,2,4
							c1,3,3.2,8,3.2,8l3.5,1.2"/>
						<path class="st8" d="M318.9,585.1l1.2-8.7l3-9.7l0.7-6.2c0,0,0.2-3-0.2-4.2c-0.5-1.2-0.2-5.2-0.2-5.2v-1.2
							c0,0-0.7-2.2-1.5-4.2c-0.7-2-1.7-4.5-1.7-4.5s0.2-2.7-1.2-3.5c-1.5-0.7-6-3-6-3s-0.7-1-2-2s-4.5-5-4.5-5l-2.2-2.7l-2.5,0.5
							l-3.2,3.2l-2,4.2l-1.2,3.5c0,0-3,3.7-5.5,1.5c-2.5-2-1.7-2.5-3.7-3.5c-2-1-6-2.5-7.5-3c-1.5-0.2-5.2-1.5-5.2-1.5
							s3.5-3.7-2.5,0.5c-5.7,4.2-4,2.2-5.7,4.2c-2,2-3.7,4.2-3.7,4.2l-2.5,3.5c0,0-2.2,6-1.7,7.2c0.5,1.2,0.5,2.7,1.2,7
							c0.5,4-0.2,4.5,1,7.7c1.2,3.5,1.2,7.2,1.2,7.2l-6.5,1c0,0-5.5,2.5-6.2,4s-3.7,7.5-3.5,8.5c0.5,1.2,2,5.2,2,5.2
							s-1.7,1.5,1.5,3.2c3.2,1.7,3.2,1.7,3.2,1.7h2.5l1.5,5c0,0-1.2,2.5-0.7,3.7c0.5,1.2,0.2,3,0.2,3l1.5,3.7c0,0,0,1.2,1.5,2
							c1.5,0.7,5.5,2,6.5,1.5c1.2-0.5,4.2-1.5,4.2-1.5s1,0.5,2.5,0c1.5-0.5,3.7-1.5,3.7-1.5l3.2,0.5l3,5c0,0,2.5,2.2,3.7,1.7
							s5-1.7,5.7-3c0.7-1.2,5.5-5,7.5-5.7c2-0.7,13.2-7.5,14.2-8.2c1-0.7,4.5-4.7,4.5-4.7c0.7-2.5,1-8.2,1-8.2L318.9,585.1z"/>
						<path class="st9" d="M304.4,565.6l-4.7-2.5l-6,0.7l-7,8.5l-3,7.2l1,1.5c0,0,0.7,1,2.7,0.2c2-0.7,4.5-1.7,4.5-1.7l4.2-2.7
							l2.7-5.7l1,5.2l-5,5.2l-3.7,1.7l-5.2,2c0,0-0.2,1.7,0.2,3c0.5,1.2,1.2,3.5,1.2,3.5s0.2,0.7,0.7,1.5c0.5,0.7,1.2,1.7,2,2.2
							c1.7,1,3,2.2,3,2.2l-1.2,2.2c0,0-1.5-0.7-2-2.2c-0.5-1.5-7.5-8.5-7.5-8.5l-1-6.2l-0.2-5.5l3.2-7.7c0,0,0.5-3.2,5.2-6.2
							c4.5-3,8.7-5.7,8.7-5.7l4.7,1l2.5,3.5L304.4,565.6z"/>
					</g>
					<g class="st6">
						<path class="st8" d="M327.6,794.4l1.2-8.7l3-9.7l0.7-6.2c0,0,0.2-3-0.2-4.2c-0.5-1.2-0.2-5.2-0.2-5.2v-1.2
							c0,0-0.7-2.2-1.5-4.2c-0.7-2-1.7-4.5-1.7-4.5s0.2-2.7-1.2-3.5s-6-3-6-3s-0.7-1-2-2s-4.5-5-4.5-5l-2.2-2.7l-2.5,0.5l-3.2,3.2
							l-2,4.2l-1.2,3.5c0,0-3,3.7-5.5,1.5c-2.5-2.2-1.7-2.5-3.7-3.5c-2-1-6-2.5-7.5-3c-1.5-0.2-5.2-1.5-5.2-1.5s3.5-3.7-2.5,0.5
							c-5.7,4.2-4,2.2-5.7,4.2c-2,2-3.7,4.2-3.7,4.2l-2.5,3.5c0,0-2.2,6-1.7,7.2c0.5,1.2,0.5,2.7,1.2,7c0.5,4-0.2,4.5,1,7.7
							c1.2,3.5,1.2,7.2,1.2,7.2l-6.5,1c0,0-5.5,2.5-6.2,4c-0.7,1.5-3.7,7.5-3.5,8.5c0.5,1.2,2,5.2,2,5.2s-1.7,1.5,1.7,3.2
							c3.2,1.7,3.2,1.7,3.2,1.7h2.5l1.5,5.2c0,0-1.2,2.5-0.7,3.7c0.5,1.2,0.2,3,0.2,3l1.5,3.7c0,0,0,1.2,1.5,2s5.5,2,6.5,1.5
							c1.2-0.5,4.2-1.5,4.2-1.5s1,0.5,2.5,0s3.7-1.5,3.7-1.5l3.2,0.5l3,5c0,0,2.5,2.2,3.7,1.7c1.2-0.5,5-1.7,5.7-3
							c1-1.2,5.5-5,7.5-5.7c2-0.7,13.2-7.5,14.2-8.2s4.5-4.7,4.5-4.7c0.7-2.5,1-8.2,1-8.2L327.6,794.4z"/>
					</g>
					<g class="st6">
						<path class="st7" d="M242.5,737.7l9.5,1l9-3.7c0,0,4.7-2.5,6-4.7s6-8.7,6-8.7l1.5-1.7l1.7-1l5,4.2c4-0.5,5.7-1.2,5.7-1.2
							s-0.5,3.2-2.5-2.2c-2-5.2-2.7-9-2.7-9l1.7-1.5c0,0,4.5,4,4.5,5.2c0,1.2,1,0,1.5,5.2c0.5,5,1.2,7,0.2,7.7c-1,0.7-2,3.7-4.7,4.7
							s-4.5,4.7-4.5,4.7s7.5-5.2,8.5-6.5c0.7-1.2,4.5-6.5,4.5-6.5l2.5-3.5l5.2-2c0,0,1-0.7,2.7-0.5c1.7,0.2,5,1.7,5,1.7l-1.5,3.2
							l4.7-2.2c0,0-0.2-4.2-2-5.2s-3.7-4.2-8.5-5.5c-4.7-1.2-1.7,0.2-8.2-2.7c-6.7-2.7-11.5-5.5-13.2-5.5c-1.7-0.2-4.2,0.2-7.2-0.7
							s-6.7-2.7-6.7-2.7l-7-8.2l-5.7-10H249l-6.7,1.5l2.7,2.5c0,0,5.7-0.7,6.2,0.2c0.5,1.2,1,4,2,5.7c1,1.7,2.7,5.5,2.7,5.5l1.2,2.2
							l-4,7l5.2-3.2c0,0,3-2.5,3.7-1.5c0.7,1,3,2.2,3,2.2l2.7,4.2l1.5,4.2c0,0,2-0.7,0.7,2.2c-1,3-1,3-1,3s-2.5,4.7-5.5,7.2
							c-3,2.5-2.7,2.2-4.5,3.2c-1.7,1-3,2.5-5,3c-2,0.7-1,0.7-4,2c-3,1-8,3.2-8,3.2l-1,3.2"/>
						<path class="st10" d="M287.2,709.3l8.7,1.2l9.7,3l6.2,0.7c0,0,3,0.2,4.2-0.2c1.2-0.5,5.2-0.2,5.2-0.2h1.2c0,0,2.2-0.7,4.2-1.5
							c2-0.7,4.5-1.7,4.5-1.7s2.7,0.2,3.5-1.2s3-6,3-6s1-0.7,1.7-2c1-1.2,5-4.5,5-4.5l2.7-2.2l-0.5-2.5l-3.2-3.2l-4.2-2l-3.5-1.2
							c0,0-3.7-3-1.5-5.5c2.2-2.5,2.5-1.7,3.5-3.7c1-2,2.5-6,3-7.5c0.2-1.5,1.5-5.2,1.5-5.2s3.7,3.5-0.5-2.5c-4.2-5.7-2.2-4-4.2-5.7
							c-2-2-4.2-3.7-4.2-3.7l-3.5-2.5c0,0-6-2.2-7.2-1.7s-2.7,0.5-7,1.2c-4,0.5-4.5-0.2-7.7,1c-3.5,1.2-7.2,1.2-7.2,1.2l-1-6.5
							c0,0-2.5-5.5-4-6.2c-1.5-0.7-7.5-3.7-8.5-3.5c-1.2,0.5-5.2,2-5.2,2s-1.5-1.7-3.2,1.5c-1.7,3.2-1.7,3.2-1.7,3.2v2.5l-5.2,1.5
							c0,0-2.5-1.2-3.7-0.7s-3,0.2-3,0.2l-3.7,1.5c0,0-1.2,0-2,1.5c-0.7,1.5-2,5.5-1.5,6.5c0.5,1.2,1.5,4.2,1.5,4.2s-0.5,1,0,2.5
							c0.5,1.5,1.5,3.7,1.5,3.7l-0.5,3.2l-5,3c0,0-2.2,2.5-1.7,3.7c0.5,1.2,1.7,5,3,5.7c1.2,1,5,5.5,5.7,7.5
							c0.7,2,7.5,13.2,8.2,14.2c0.7,1,4.5,4.5,4.5,4.5c2.5,0.7,8.2,1,8.2,1L287.2,709.3z"/>
						<path class="st9" d="M306.6,694.8l2.5-4.7l-0.7-5.7l-8.5-7l-7.2-3l-1.5,1c0,0-1,0.7-0.2,2.7c0.7,2,1.7,4.5,1.7,4.5l2.7,4.2
							l5.7,2.7l-5.2,1l-5.2-5l-1.7-3.7l-2-5.2c0,0-1.7-0.2-3,0.2s-3.5,1.2-3.5,1.2s-0.7,0.2-1.5,0.7c-0.7,0.5-1.7,1.2-2.2,2
							c-1.2,1.7-2.2,3-2.2,3l-2.2-1.2c0,0,0.7-1.5,2.2-2s8.5-7.5,8.5-7.5l6.2-1l5.5-0.2l7.7,3.2c0,0,3.2,0.5,6.2,5.2
							c3,4.5,5.7,8.7,5.7,8.7l-1,4.7l-3.5,2.5L306.6,694.8z"/>
					</g>
					<g class="st6">
						<path class="st7" d="M688.1,798.6l1-9.5l-3.7-9c0,0-2.5-4.7-4.7-6c-2.2-1.2-8.7-6-8.7-6l-1.7-1.5l-1-1.7l4.2-5
							c-0.5-4-1.2-5.7-1.2-5.7s3.2,0.5-2.2,2.5c-5.2,2-9,2.7-9,2.7l-1.5-1.7c0,0,4-4.5,5.2-4.5c1.2,0,0-1,5-1.5c5-0.5,7-1.2,7.7-0.2
							c0.7,1,3.7,2,4.7,4.7c1,2.7,4.7,4.5,4.7,4.5s-5.2-7.5-6.5-8.5c-1.2-1-6.5-4.5-6.5-4.5l-3.5-2.5l-2-5.2c0,0-0.7-1-0.5-2.7
							c0.2-1.7,1.7-5,1.7-5l3.2,1.5l-2.2-4.7c0,0-4.2,0.2-5.2,2c-1,1.7-4.2,3.7-5.5,8.5c-1.2,4.7,0.2,1.7-2.5,8.2
							c-2.7,6.7-5.5,11.5-5.5,13.2c-0.2,1.7,0.2,4.2-0.7,7.2c-1,3-2.7,6.7-2.7,6.7l-8.2,7l-10,5.7v4.7l1.5,6.7l2.5-2.7
							c0,0-0.7-5.7,0.2-6.2c1.2-0.5,4-1,5.7-2c1.7-1,5.5-2.7,5.5-2.7l2.2-1.2l7,4l-3.2-5.2c0,0-2.5-3-1.5-3.7c1-0.7,2.2-3,2.2-3
							l4.2-2.7l4.2-1.5c0,0-0.7-2,2.2-0.7c3,1,3,1,3,1s4.7,2.5,7.2,5.7c2.5,3,2.2,2.7,3.2,4.5c1,1.7,2.5,3,3,5c0.7,2,0.7,1,2,4
							c1,3,3.2,8,3.2,8l3.5,1.2"/>
						<path class="st8" d="M659.6,753.9l1.2-8.7l3-9.7l0.7-6.2c0,0,0.2-3-0.2-4.2c-0.5-1.2-0.2-5.2-0.2-5.2v-1.2
							c0,0-0.7-2.2-1.5-4.2c-0.7-2-1.7-4.5-1.7-4.5s0.2-2.7-1.2-3.5c-1.5-0.7-6-3-6-3s-0.7-1-2-2c-1.2-1-4.5-5-4.5-5l-2.2-2.7
							l-2.5,0.5l-3.2,3.2l-2,4.2l-1.2,3.5c0,0-3,3.7-5.5,1.5s-1.7-2.5-3.7-3.5c-2-1-6-2.5-7.5-3c-1.5-0.2-5.2-1.5-5.2-1.5
							s3.5-3.7-2.5,0.5c-5.7,4.2-4,2.2-5.7,4.2c-2,2-3.7,4.2-3.7,4.2l-2.5,3.5c0,0-2.2,6-1.7,7.2s0.5,2.7,1.2,7c0.5,4-0.2,4.5,1,7.7
							c1.2,3.5,1.2,7.2,1.2,7.2l-6.5,1c0,0-5.5,2.5-6.2,4c-0.7,1.5-3.7,7.5-3.5,8.5c0.5,1.2,2,5.2,2,5.2s-1.7,1.5,1.7,3.2
							c3.2,1.7,3.2,1.7,3.2,1.7h2.5l1.5,5.2c0,0-1.2,2.5-0.7,3.7c0.5,1.2,0.2,3,0.2,3l1.5,3.7c0,0,0,1.2,1.5,2
							c1.5,0.7,5.5,2,6.5,1.5c1.2-0.5,4.2-1.5,4.2-1.5s1,0.5,2.5,0c1.5-0.5,3.7-1.5,3.7-1.5l3.2,0.5l3,5c0,0,2.5,2.2,3.7,1.7
							c1.2-0.5,5-1.7,5.7-3c1-1.2,5.5-5,7.5-5.7s13.2-7.5,14.2-8.2c1-0.7,4.5-4.5,4.5-4.5c0.7-2.5,1-8.2,1-8.2L659.6,753.9z"/>
						<path class="st9" d="M645.1,734.5l-4.7-2.5l-5.7,0.7l-7,8.5l-3,7.2l1,1.5c0,0,0.7,1,2.7,0.2c2-0.7,4.5-1.7,4.5-1.7l4.2-2.7
							l2.7-5.7l1,5.2l-5,5.2l-3.7,1.7l-5.2,2c0,0-0.2,1.7,0.2,3c0.5,1.2,1.2,3.5,1.2,3.5s0.2,0.7,0.7,1.5c0.5,0.7,1.2,1.7,2,2.2
							c1.7,1,3,2.2,3,2.2l-1.2,2.2c0,0-1.5-0.7-2-2.2c-0.5-1.5-7.5-8.5-7.5-8.5l-1-6.2l-0.2-5.5l3.2-7.7c0,0,0.5-3.2,5.2-6.2
							c4.5-3,8.7-5.7,8.7-5.7l4.7,1l2.5,3.5L645.1,734.5z"/>
					</g>
					<g class="st6">
						<path class="st7" d="M705,651.2l1-9.5l-3.7-9c0,0-2.5-4.7-4.7-6c-2.2-1.2-8.7-6-8.7-6l-1.7-1.5l-1-1.7l4.2-5
							c-0.5-4-1.2-5.7-1.2-5.7s3.2,0.5-2.2,2.5c-5.2,2-9,2.7-9,2.7l-1.5-1.7c0,0,4-4.5,5.2-4.5c1.2,0,0-1,5-1.5c5-0.5,7-1.2,7.7-0.2
							c0.7,1,3.7,2,4.7,4.7c1,2.7,4.7,4.5,4.7,4.5s-5.2-7.5-6.5-8.5c-1.2-0.7-6.5-4.5-6.5-4.5l-3.5-2.5l-2-5.2c0,0-0.7-1-0.5-2.7
							c0.2-1.7,1.7-5,1.7-5l3.2,1.5l-2.2-4.7c0,0-4.2,0.2-5.2,2c-1,1.7-4.2,3.7-5.5,8.5c-1.2,4.7,0.2,1.7-2.5,8.2
							c-2.7,6.7-5.5,11.5-5.5,13.2c-0.2,1.7,0.2,4.2-0.7,7.2c-1,3-2.7,6.7-2.7,6.7l-8.2,7l-10,5.7v4.7l1.5,6.7l2.5-2.7
							c0,0-0.7-5.7,0.2-6.2c1.2-0.5,4-1,5.7-2c1.7-1,5.5-2.7,5.5-2.7l2.2-1.2l7,4l-3.2-5.2c0,0-2.5-3-1.5-3.7c1-0.7,2.2-3,2.2-3
							l4.2-2.7l4.2-1.5c0,0-0.7-2,2.2-0.7c3,1,3,1,3,1s4.7,2.5,7.2,5.5s2.2,2.7,3.2,4.5c1,1.7,2.5,3,3,5c0.7,2,0.7,1,2,4
							c1,3,3.2,8,3.2,8l3.5,1.2"/>
						<path class="st8" d="M676.3,606.5l1.2-8.7l3-9.7l0.7-6.2c0,0,0.2-3-0.2-4.2c-0.5-1.2-0.2-5.2-0.2-5.2v-1.2
							c0,0-0.7-2.2-1.5-4.2c-0.7-2-1.7-4.5-1.7-4.5s0.2-2.7-1.2-3.5c-1.5-0.7-5.7-3-5.7-3s-0.7-1-2-1.7c-1.2-1-4.5-5-4.5-5l-2.2-2.7
							l-2.5,0.5l-3.2,3.2l-2,4.2l-1.2,3.5c0,0-3,3.7-5.5,1.5c-2.5-2.2-1.7-2.5-3.7-3.5s-6-2.5-7.5-3c-1.5-0.2-5.2-1.5-5.2-1.5
							s3.5-3.7-2.5,0.5c-5.7,4.2-4,2.2-5.7,4.2c-2,2-3.7,4.2-3.7,4.2l-2.5,3.5c0,0-2.2,6-1.7,7.2c0.5,1.2,0.5,2.7,1.2,7
							c0.5,4-0.2,4.5,1,7.7c1.2,3.5,1.2,7.2,1.2,7.2l-6.5,1c0,0-5.5,2.5-6.2,4c-0.7,1.5-3.7,7.5-3.5,8.5c0.5,1.2,2,5.2,2,5.2
							s-1.7,1.5,1.5,3.2c3.2,1.7,3.2,1.7,3.2,1.7h2.5l1.5,5.2c0,0-1.2,2.5-0.7,3.7c0.5,1.2,0.2,3,0.2,3l1.5,3.7c0,0,0,1.2,1.5,2
							c1.5,0.7,5.5,2,6.5,1.5c1.2-0.5,4.2-1.5,4.2-1.5s1,0.5,2.5,0c1.5-0.5,3.7-1.5,3.7-1.5l3.2,0.5l3,5c0,0,2.5,2.2,3.7,1.7
							c1.2-0.5,5-1.7,5.7-3c0.7-1.2,5.5-5,7.5-5.7s13.2-7.5,14.2-8.2c1-0.7,4.5-4.7,4.5-4.7c0.7-2.5,1-8.2,1-8.2L676.3,606.5z"/>
						<path class="st9" d="M662.1,587.1l-4.7-2.5l-5.7,0.7l-7,8.5l-3,7.2l1,1.5c0,0,0.7,1,2.7,0.2s4.5-1.7,4.5-1.7l4.2-2.7l2.7-5.7
							l1,5.2l-5,5.2l-3.7,1.7l-5.2,2c0,0-0.2,1.7,0.2,3c0.5,1.2,1.2,3.5,1.2,3.5s0.2,0.7,0.7,1.5c0.5,0.7,1.2,1.7,2,2.2
							c1.7,1,3,2.5,3,2.5l-1.2,2.2c0,0-1.5-0.7-2-2.2c-0.5-1.5-7.5-8.5-7.5-8.5l-1-6.2l-0.2-5.5l3.2-7.7c0,0,0.5-3.2,5.2-6.2
							c4.5-3,8.7-5.7,8.7-5.7l4.7,1l2.5,3.5L662.1,587.1z"/>
					</g>
					<g class="st6">
						<path class="st7" d="M590,551.4l1-9.5l-3.7-9c0,0-2.5-4.7-4.7-6c-2.2-1.2-8.7-6-8.7-6l-1.7-1.5l-1-1.7l4.2-5
							c-0.5-4-1.2-5.7-1.2-5.7s3.2,0.5-2.2,2.5c-5.2,2-9,2.7-9,2.7l-1.5-1.7c0,0,4-4.5,5.2-4.5c1.2,0,0-1,5-1.5c5-0.5,7-1.2,7.7-0.2
							c0.7,1,3.7,2,4.7,4.7c1,2.7,4.7,4.5,4.7,4.5s-5.2-7.5-6.5-8.5c-1.2-1-6.5-4.5-6.5-4.5l-3.5-2.5l-2-5.2c0,0-0.7-1-0.5-2.7
							c0.2-1.7,1.7-5,1.7-5l3.2,1.5l-2.2-4.7c0,0-4.2,0.2-5.2,2s-4.2,3.7-5.5,8.5c-1.2,4.7,0.2,1.7-2.5,8.2
							c-2.7,6.7-5.5,11.5-5.5,13.2c-0.2,1.7,0.2,4.2-0.7,7.2c-1,3-2.7,6.7-2.7,6.7l-8.2,7l-10,5.7v4.7l1.5,6.7l2.5-2.7
							c0,0-0.7-5.7,0.2-6.2c1.2-0.5,4-1,5.7-2c1.7-1,5.5-2.7,5.5-2.7l2.2-1.2l7,4l-3.2-5.2c0,0-2.5-3-1.5-3.7c1-0.7,2.2-3,2.2-3
							l4.2-2.7l4.2-1.5c0,0-0.7-2,2.2-0.7c3,1,3,1,3,1s4.7,2.5,7.2,5.5s2.2,2.7,3.2,4.5c1,1.7,2.5,3,3,5c0.7,2,0.7,1,2,4
							c1,3,3.2,8,3.2,8l3.5,1.2"/>
						<path class="st8" d="M561.6,506.7l1.2-8.7l3-9.7l0.7-6.2c0,0,0.2-3-0.2-4.2c-0.5-1.2-0.2-5.2-0.2-5.2v-1.2
							c0,0-0.7-2.2-1.5-4.2c-0.7-2-1.7-4.5-1.7-4.5s0.2-2.7-1.2-3.5c-1.5-0.7-6-3-6-3s-0.7-1-2-2c-1.2-1-4.5-5-4.5-5l-2.2-2.7
							l-2.5,0.5l-3.2,3.2l-2,4.2l-1.2,3.5c0,0-3,3.7-5.5,1.5s-1.7-2.5-3.7-3.5s-6-2.5-7.5-3c-1.5-0.2-5.2-1.5-5.2-1.5
							s3.5-3.7-2.5,0.5c-5.7,4.2-4,2.2-5.7,4.2c-2,2-3.7,4.2-3.7,4.2l-2.5,3.5c0,0-2.2,6-1.7,7.2c0.5,1.2,0.5,2.7,1.2,7
							c0.5,4-0.2,4.5,1,7.7c1.2,3.5,1.2,7.2,1.2,7.2l-6.5,1c0,0-5.5,2.5-6.2,4s-3.7,7.5-3.5,8.5c0.5,1.2,2,5.2,2,5.2
							s-1.7,1.5,1.5,3.2c3.2,1.7,3.2,1.7,3.2,1.7h2.5l1.5,5c0,0-1.2,2.5-0.7,3.7c0.5,1.2,0.2,3,0.2,3l1.5,3.7c0,0,0,1.2,1.5,2
							c1.5,0.7,5.5,2,6.5,1.5c1.2-0.5,4.2-1.5,4.2-1.5s1,0.5,2.5,0c1.5-0.5,3.7-1.5,3.7-1.5l3.2,0.5l3,5c0,0,2.5,2.2,3.7,1.7
							c1.2-0.5,5-1.7,5.7-3c1-1.2,5.5-5,7.5-5.7c2-0.7,13.2-7.5,14.2-8.2c1-0.7,4.5-4.5,4.5-4.5c0.7-2.5,1-8.2,1-8.2L561.6,506.7z"
							/>
						<path class="st9" d="M547.1,487.3l-4.7-2.5l-5.7,0.7l-7,8.5l-3,7.2l1,1.5c0,0,0.7,1,2.7,0.2c2-0.7,4.5-1.7,4.5-1.7l4.2-2.7
							l2.7-5.7l1,5.2l-5,5.2l-3.7,1.7l-5.2,2c0,0-0.2,1.7,0.2,3c0.5,1.2,1.2,3.5,1.2,3.5s0.2,0.7,0.7,1.5c0.5,0.7,1.2,1.7,2,2.2
							c1.7,1,3,2.2,3,2.2l-1.2,2.2c0,0-1.5-0.7-2-2.2c-0.5-1.5-7.5-8.5-7.5-8.5l-1-6.2l-0.2-5.5l3.2-7.7c0,0,0.5-3.2,5.2-6.2
							c4.5-3,8.7-5.7,8.7-5.7l4.7,1l2.5,3.5L547.1,487.3z"/>
					</g>
					<g class="st6">
						<path class="st7" d="M569.3,547.9l9.5,1l9-3.7c0,0,4.7-2.5,6-4.7c1.2-2.2,6-8.7,6-8.7l1.5-1.7l1.7-1l5,4.2
							c4-0.5,5.7-1.2,5.7-1.2s-0.5,3.2-2.5-2.2c-2-5.2-2.7-9-2.7-9l1.7-1.5c0,0,4.5,4,4.5,5.2c0,1.2,1,0,1.5,5.2
							c0.5,5,1.2,7,0.2,7.7c-1,0.7-2,3.7-4.7,4.7s-4.5,4.7-4.5,4.7s7.5-5.2,8.5-6.5c1-1.2,4.5-6.5,4.5-6.5l2.5-3.5l5.2-2
							c0,0,1-0.7,2.7-0.5s5,1.7,5,1.7l-1.5,3.2l4.7-2.2c0,0-0.2-4.2-2-5.2c-1.7-1-3.7-4.2-8.5-5.5c-4.7-1.2-1.7,0.2-8.2-2.7
							c-6.7-2.7-11.5-5.5-13.2-5.5c-1.7-0.2-4.2,0.2-7.2-0.7s-6.7-2.7-6.7-2.7l-7-8.2l-5.7-10h-4.7l-6.7,1.5l2.7,2.5
							c0,0,5.7-0.7,6.2,0.2c0.5,1.2,1,4,2,5.7c1,1.7,2.7,5.5,2.7,5.5l1.2,2.2l-4,7l5.2-3.2c0,0,3-2.5,3.7-1.5c0.7,1,3,2.5,3,2.5
							l2.7,4.2l1.5,4.2c0,0,2-0.7,0.7,2.2c-1,3-1,3-1,3s-2.5,4.7-5.7,7.2c-3,2.5-2.7,2.2-4.5,3.2c-1.7,1-3,2.5-5,3c-2,0.7-1,0.7-4,2
							c-3,1-8,3.2-8,3.2l-1.2,3.5"/>
						<path class="st10" d="M614,519.5l8.7,1.2l9.7,3l6.2,0.7c0,0,3,0.2,4.2-0.2c1.2-0.5,5.2-0.2,5.2-0.2h1.2c0,0,2.2-0.7,4.2-1.5
							c2-0.7,4.5-1.7,4.5-1.7s2.7,0.2,3.5-1.2c0.7-1.5,3-6,3-6s1-0.7,1.7-2c1-1.2,5-4.5,5-4.5l2.7-2.2l-0.5-2.5l-3.2-3.2l-4.2-2
							l-3.5-1.2c0,0-3.7-3-1.5-5.5c2.2-2.5,2.5-1.7,3.5-3.7c1-2,2.5-6,3-7.5c0.2-1.5,1.5-5.2,1.5-5.2s3.7,3.5-0.5-2.5
							c-4.2-5.7-2.2-4-4.2-5.7c-2-2-4.2-3.7-4.2-3.7l-3.5-2.5c0,0-6-2.2-7.2-1.7c-1.2,0.5-2.7,0.5-7,1.2c-4,0.5-4.5-0.2-7.7,1
							c-3.5,1.2-7.2,1.2-7.2,1.2l-1-6.5c0,0-2.5-5.5-4-6.2c-1.5-0.7-7.5-3.7-8.5-3.5c-1.2,0.5-5.2,2-5.2,2s-1.5-1.7-3.2,1.5
							c-1.7,3.2-1.7,3.2-1.7,3.2v2.5l-5.2,1.5c0,0-2.5-1.2-3.7-0.7s-3,0.2-3,0.2l-3.7,1.5c0,0-1.2,0-2,1.5c-0.7,1.5-2,5.5-1.5,6.5
							c0.5,1.2,1.5,4.2,1.5,4.2s-0.5,1,0,2.5c0.5,1.5,1.5,3.7,1.5,3.7l-0.5,3.2l-5,3c0,0-2.2,2.5-1.7,3.7s1.7,5,3,5.7
							c1.2,1,5,5.5,5.7,7.5c0.7,2,7.5,13.2,8.2,14.2c0.7,1,4.7,4.5,4.7,4.5c2.5,0.7,8.2,1,8.2,1L614,519.5z"/>
						<path class="st9" d="M633.4,505l2.5-4.7l-0.7-5.7l-8.5-7l-7.2-3l-1.5,1c0,0-1,0.7-0.2,2.7c0.7,2,1.7,4.5,1.7,4.5l2.7,4.2
							l5.7,2.7l-5.2,1l-5.2-5l-1.7-3.7l-2-5.2c0,0-1.7-0.2-3,0.2c-1.2,0.5-3.5,1.2-3.5,1.2s-0.7,0.2-1.5,0.7c-0.7,0.5-1.7,1.2-2.2,2
							c-1.2,1.7-2.5,3-2.5,3l-2.2-1.2c0,0,0.7-1.5,2.2-2c1.5-0.5,8.5-7.5,8.5-7.5l6.2-1l5.5-0.2l7.7,3.2c0,0,3.2,0.5,6.2,5.2
							c3,4.5,5.7,8.7,5.7,8.7l-1,4.7l-3.5,2.5L633.4,505z"/>
					</g>
					<g class="st6">
						<path class="st8" d="M524.7,807.6l1.2-8.7l3-9.7l0.7-6.2c0,0,0.2-3-0.2-4.2c-0.5-1.2-0.2-5.2-0.2-5.2v-1.2
							c0,0-0.7-2.2-1.5-4.2c-0.7-2-1.7-4.5-1.7-4.5s0.2-2.7-1.2-3.5c-1.5-0.7-6-3-6-3s-0.7-1-2-1.7c-1.2-1-4.5-5-4.5-5l-2.2-2.7
							l-2.5,0.5l-3.2,3.2l-2,4.2l-1.2,3.5c0,0-3,3.7-5.5,1.5c-2.5-2.2-1.7-2.5-3.7-3.5c-2-1-6-2.5-7.5-3c-1.5-0.2-5.2-1.5-5.2-1.5
							s3.5-3.7-2.5,0.5c-5.7,4.2-4,2.2-5.7,4.2c-2,2-3.7,4.2-3.7,4.2l-2.5,3.5c0,0-2.2,6-1.7,7.2c0.5,1.2,0.5,2.7,1.2,7
							c0.5,4-0.2,4.5,1,7.7c1.2,3.5,1.2,7.2,1.2,7.2l-6.5,1c0,0-5.5,2.5-6.2,4s-3.7,7.5-3.5,8.5c0.5,1.2,2,5.2,2,5.2
							s-1.7,1.5,1.5,3.2c3.2,1.7,3.2,1.7,3.2,1.7h2.5l1.5,5c0,0-1.2,2.5-0.7,3.7c0.5,1.2,0.2,3,0.2,3l1.5,3.7c0,0,0,1.2,1.5,2
							c1.5,0.7,5.5,2,6.5,1.5c1.2-0.5,4.2-1.5,4.2-1.5s1,0.5,2.5,0c1.5-0.5,3.7-1.5,3.7-1.5l3.2,0.5l3,5c0,0,2.5,2.2,3.7,1.7
							s5-1.7,5.7-3c1-1.2,5.5-5,7.5-5.7s13.2-7.5,14.2-8.2c1-0.7,4.5-4.5,4.5-4.5c0.7-2.5,1-8.2,1-8.2L524.7,807.6z"/>
					</g>
					<g class="st6">
						<path class="st7" d="M471,551.4l1-9.5l-3.7-9c0,0-2.5-4.7-4.7-6c-2.2-1.2-8.7-6-8.7-6l-1.7-1.5l-1-1.7l4.2-5
							c-0.5-4-1.2-5.7-1.2-5.7s3.2,0.5-2.2,2.5c-5.2,2-9,2.7-9,2.7l-1.5-1.7c0,0,4-4.5,5.2-4.5c1.2,0,0-1,5-1.5c5-0.5,7-1.2,7.7-0.2
							c0.7,1,3.7,2,4.7,4.7s4.7,4.5,4.7,4.5s-5.2-7.5-6.5-8.5c-1.2-1-6.5-4.5-6.5-4.5l-3.5-2.5l-2-5.2c0,0-0.7-1-0.5-2.7
							c0.2-1.7,1.7-5,1.7-5l3.2,1.5l-2.2-4.7c0,0-4.2,0.2-5.2,2s-4.2,3.7-5.5,8.5c-1.2,4.7,0.2,1.7-2.7,8.2
							c-2.7,6.7-5.5,11.5-5.5,13.2c-0.2,1.7,0.2,4.2-0.7,7.2s-2.7,6.7-2.7,6.7l-8.2,7l-10,5.7v4.7l1.5,6.7l2.5-2.7
							c0,0-0.7-5.7,0.2-6.2c1.2-0.5,4-1,5.7-2c1.7-1,5.5-2.7,5.5-2.7l2.2-1.2l7,4l-3.2-5.2c0,0-2.5-3-1.5-3.7c1-0.7,2.2-3,2.2-3
							l4.2-2.7l4.2-1.5c0,0-0.7-2,2.2-0.7c3,1,3,1,3,1s4.7,2.5,7.2,5.5s2.2,2.7,3.2,4.5c1,1.7,2.5,3,3,5c0.7,2,0.7,1,2,4
							c1,3,3.2,8,3.2,8l3.5,1.2"/>
						<path class="st8" d="M442.6,506.7l1.2-8.7l3-9.7l0.7-6.2c0,0,0.2-3-0.2-4.2c-0.5-1.2-0.2-5.2-0.2-5.2v-1.2
							c0,0-0.7-2.2-1.5-4.2c-0.7-2-1.7-4.5-1.7-4.5s0.2-2.7-1.2-3.5c-1.5-0.7-6-3-6-3s-0.7-1-2-2c-1.2-1-4.5-5-4.5-5l-2.2-2.7
							l-2.5,0.5l-3.2,3.2l-2,4.2l-1.2,3.5c0,0-3,3.7-5.5,1.5c-2.5-2.2-1.7-2.5-3.7-3.5c-2-1-6.2-2.5-7.5-3c-1.5-0.2-5.2-1.5-5.2-1.5
							s3.5-3.7-2.5,0.5c-5.7,4.2-4,2.2-5.7,4.2c-2,2-3.7,4.2-3.7,4.2l-2.5,3.5c0,0-2.2,6-1.7,7.2c0.5,1.2,0.5,2.7,1.2,7
							c0.5,4-0.2,4.5,1,7.7c1.2,3.5,1.2,7.2,1.2,7.2l-6.5,1c0,0-5.5,2.5-6.2,4c-0.7,1.5-3.7,7.5-3.5,8.5c0.5,1.2,2,5.2,2,5.2
							s-1.7,1.5,1.7,3.2c3.2,1.7,3.2,1.7,3.2,1.7h2.5l1.5,5c0,0-1.2,2.5-0.7,3.7c0.5,1.2,0.2,3,0.2,3l1.5,3.7c0,0,0,1.2,1.5,2
							c1.5,0.7,5.5,2,6.5,1.5c1.2-0.5,4.2-1.5,4.2-1.5s1,0.5,2.5,0s3.7-1.5,3.7-1.5l3.2,0.5l3,5c0,0,2.5,2.2,3.7,1.7s5-1.7,5.7-3
							c0.7-1.2,5.5-5,7.5-5.7c2-0.7,13.2-7.5,14.2-8.2c1-0.7,4.5-4.5,4.5-4.5c0.7-2.5,1-8.2,1-8.2L442.6,506.7z"/>
						<path class="st9" d="M428.1,487.3l-4.7-2.5l-5.7,0.7l-7,8.5l-3,7.2l1,1.5c0,0,0.7,1,2.7,0.2c2-0.7,4.5-1.7,4.5-1.7l4.2-2.7
							l2.7-5.7l1,5.2l-5,5.2l-3.7,1.7l-5.2,2c0,0-0.2,1.7,0.2,3c0.5,1.2,1.2,3.5,1.2,3.5s0.2,0.7,0.7,1.5c0.5,0.7,1.2,1.7,2,2.2
							c1.7,1,3,2.2,3,2.2l-1.2,2.2c0,0-1.5-0.7-2-2.2c-0.5-1.5-7.5-8.5-7.5-8.5l-1-6.2l-0.2-5.5l3.2-7.7c0,0,0.5-3.2,5.2-6.2
							c4.5-3,8.7-5.7,8.7-5.7l4.7,1l2.5,3.5L428.1,487.3z"/>
					</g>
					<g class="st6">
						<path class="st7" d="M287.2,535.9l9.5,1l9-3.7c0,0,4.7-2.5,6-4.7s6-8.7,6-8.7l1.5-1.7l1.7-1l5,4.2c4-0.5,5.7-1.2,5.7-1.2
							s-0.5,3.2-2.5-2.2c-2-5.2-2.7-9-2.7-9l1.7-1.5c0,0,4.5,4,4.5,5.2c0,1.2,1,0,1.5,5s1.2,7,0.2,7.7c-1,0.7-2,3.7-4.7,4.7
							s-4.5,4.7-4.5,4.7s7.5-5.2,8.5-6.5c0.7-1.2,4.5-6.5,4.5-6.5l2.5-3.5l5.2-2c0,0,1-0.7,2.7-0.5c1.7,0.2,5,1.7,5,1.7l-1.5,3.2
							l4.7-2.2c0,0-0.2-4.2-2-5.2c-1.7-1-3.7-4.2-8.5-5.5c-4.7-1.2-1.7,0.2-8.2-2.7c-6.7-2.7-11.5-5.5-13.2-5.5
							c-1.7-0.2-4.2,0.2-7.2-0.7c-3-1-6.7-2.7-6.7-2.7l-7-8.2l-5.7-10h-4.5l-6.7,1.5l2.7,2.5c0,0,5.7-0.7,6.2,0.2c0.5,1.2,1,4,2,5.7
							c1,1.7,2.7,5.5,2.7,5.5l1.2,2.2l-4,7l5.2-3.2c0,0,3-2.5,3.7-1.5c0.7,1,3,2.2,3,2.2l2.7,4.2l1.5,4.2c0,0,2-0.7,0.7,2.2
							c-1,3-1,3-1,3s-2.5,4.7-5.5,7.2s-2.7,2.2-4.5,3.2c-1.7,1-3,2.5-5,3c-2,0.7-1,0.7-4,2c-3,1-8,3.2-8,3.2l-1.2,3.5"/>
						<path class="st10" d="M331.8,507.5l8.7,1.2l9.7,3l6.2,0.7c0,0,3,0.2,4.2-0.2c1.2-0.5,5.2-0.2,5.2-0.2h1.2c0,0,2.2-0.7,4.2-1.5
							c2-0.7,4.5-1.7,4.5-1.7s2.7,0.2,3.5-1.2c0.7-1.5,3-6,3-6s1-0.7,2-2c1-1.2,5-4.5,5-4.5l2.7-2.2l-0.5-2.5l-3.2-3.2l-4.2-2
							l-3.5-1.2c0,0-3.7-3-1.5-5.5c2.2-2.5,2.5-1.7,3.5-3.7c1-2,2.5-6,3-7.5c0.2-1.5,1.5-5.2,1.5-5.2s3.7,3.5-0.5-2.5
							c-4.2-5.7-2.2-4-4.2-5.7c-2-2-4.2-3.7-4.2-3.7l-3.5-2.5c0,0-6-2.2-7.2-1.7c-1.2,0.5-2.7,0.5-7,1.2c-4,0.5-4.5-0.2-7.7,1
							c-3.5,1.2-7.2,1.2-7.2,1.2l-1-6.5c0,0-2.5-5.5-4-6.2c-1.5-0.7-7.5-3.7-8.5-3.5c-1.2,0.5-5.2,2-5.2,2s-1.5-1.7-3.2,1.5
							c-1.7,3.2-1.7,3.2-1.7,3.2v2.5l-5.2,1.5c0,0-2.5-1.2-3.7-0.7s-3,0.2-3,0.2l-3.7,1.5c0,0-1.2,0-2,1.5c-0.7,1.5-2,5.5-1.5,6.5
							c0.5,1.2,1.5,4.2,1.5,4.2s-0.5,1,0,2.5c0.5,1.5,1.5,3.7,1.5,3.7l-0.5,3.2l-5,3c0,0-2.2,2.5-1.7,3.7c0.5,1.2,1.7,5,3,5.7
							c1.2,1,5,5.5,5.7,7.5c0.7,2,7.5,13.2,8.2,14.2c0.7,1,4.7,4.5,4.7,4.5c2.5,0.7,8.2,1,8.2,1L331.8,507.5z"/>
						<path class="st9" d="M351.3,493.3l2.5-4.7l-0.7-5.7l-8.5-7l-7.2-3l-1.5,1c0,0-1,0.7-0.2,2.7c0.7,2,1.7,4.5,1.7,4.5l2.7,4.2
							l5.7,2.7l-5.2,1l-5.2-5l-1.7-3.7l-2-5.2c0,0-1.7-0.2-3,0.2c-1.2,0.5-3.5,1.2-3.5,1.2s-0.7,0.2-1.5,0.7c-0.7,0.5-1.7,1.2-2.2,2
							c-1,1.7-2.2,3-2.2,3l-2.2-1.2c0,0,0.7-1.5,2.2-2c1.5-0.5,8.5-7.5,8.5-7.5l6.2-1l5.5-0.2l7.7,3.2c0,0,3.2,0.5,6.2,5.2
							c3,4.5,5.7,8.7,5.7,8.7l-1,4.7l-3.5,2.5L351.3,493.3z"/>
					</g>
					<g class="st6">
						<path class="st7" d="M371,743l-1-9.5l3.7-9c0,0,2.5-4.7,4.7-6c2.2-1.2,8.7-6,8.7-6l1.7-1.5l1-1.7l-4.2-5
							c0.5-4,1.2-5.7,1.2-5.7s-3.2,0.5,2.2,2.5c5.2,2,9,2.7,9,2.7l1.5-1.7c0,0-4-4.5-5.2-4.5s0-1-5-1.5c-5-0.5-7-1.2-7.7-0.2
							c-0.7,1-3.7,2-4.7,4.7s-4.7,4.5-4.7,4.5s5.2-7.5,6.5-8.5c1.2-0.7,6.5-4.5,6.5-4.5l3.5-2.5l2-5.2c0,0,0.7-1,0.5-2.7
							c-0.2-1.7-1.7-5-1.7-5l-3.2,1.5l2.2-4.7c0,0,4.2,0.2,5.2,2c1,1.7,4.2,3.7,5.5,8.5s-0.2,1.7,2.7,8.2c2.7,6.7,5.5,11.5,5.5,13.2
							c0.2,1.7-0.2,4.2,0.7,7.2s2.7,6.7,2.7,6.7l8.2,7l10,5.7v4.7l-1.5,6.7l-2.5-2.7c0,0,0.7-5.7-0.2-6.2c-1.2-0.5-4-1-5.7-2
							c-1.7-1-5.5-2.7-5.5-2.7l-2.2-1.2l-7,4l3.2-5.2c0,0,2.5-3,1.5-3.7c-1-0.7-2.5-3-2.5-3l-4.2-2.7l-4.2-1.5c0,0,0.7-2-2.2-0.7
							c-3,1-3,1-3,1s-4.7,2.5-7.2,5.5c-2.5,3-2.2,2.7-3.2,4.5c-1,1.7-2.5,3-3,5c-0.7,2-0.7,1-2,4c-1,3-3.2,8-3.2,8l-3.5,1.2"/>
						<path class="st8" d="M399.4,698.3l-1.2-8.7l-3-9.7l-0.7-6.2c0,0-0.2-3,0.2-4.2c0.5-1.2,0.2-5.2,0.2-5.2v-1.2
							c0,0,0.7-2.2,1.5-4.2c0.7-2,1.7-4.5,1.7-4.5s-0.2-2.7,1.2-3.5c1.5-0.7,6-3,6-3s0.7-1,2-2c1.2-1,4.5-5,4.5-5l2.2-2.7l2.5,0.5
							l3.2,3.2l2,4.2l1.2,3.5c0,0,3,3.7,5.5,1.5c2.5-2.2,1.7-2.5,3.7-3.5c2-1,6-2.5,7.5-3c1.5-0.2,5.2-1.5,5.2-1.5s-3.5-3.7,2.5,0.5
							c5.7,4.2,4,2.2,5.7,4.2c2,2,3.7,4.2,3.7,4.2l2.5,3.5c0,0,2.2,6,1.7,7.2c-0.5,1.2-0.5,2.7-1.2,7c-0.5,4,0.2,4.5-1,7.7
							c-1.2,3.5-1.2,7.2-1.2,7.2l6.5,1c0,0,5.5,2.5,6.2,4c0.7,1.5,3.7,7.5,3.5,8.5c-0.5,1.2-2,5.2-2,5.2s1.7,1.5-1.5,3.2
							c-3.2,1.7-3.2,1.7-3.2,1.7h-2.5l-1.5,5.2c0,0,1.2,2.5,0.7,3.7c-0.5,1.2-0.2,3-0.2,3l-1.5,3.7c0,0,0,1.2-1.5,2
							c-1.5,0.7-5.5,2-6.5,1.5c-1.2-0.5-4.2-1.5-4.2-1.5s-1,0.5-2.5,0c-1.5-0.5-3.7-1.5-3.7-1.5l-3.2,0.5l-3,5c0,0-2.5,2.2-3.7,1.7
							c-1.2-0.5-5-1.7-5.7-3c-1-1.2-5.5-5-7.5-5.7c-2-0.7-13.2-7.5-14.2-8.2c-1-0.7-4.5-4.7-4.5-4.7c-0.7-2.5-1-8.2-1-8.2
							L399.4,698.3z"/>
						<path class="st9" d="M413.9,678.9l4.7-2.5l5.7,0.7l7,8.5l3,7.2l-1,1.5c0,0-0.7,1-2.7,0.2c-2-0.7-4.5-1.7-4.5-1.7l-4.2-2.7
							l-2.7-5.7l-1,5.2l5,5.2l3.7,1.7l5.2,2c0,0,0.2,1.7-0.2,3c-0.5,1.2-1.2,3.5-1.2,3.5s-0.2,0.7-0.7,1.5c-0.5,0.7-1.2,1.7-2,2.2
							c-1.7,1.2-3,2.2-3,2.2l1.2,2.2c0,0,1.5-0.7,2-2.2s7.5-8.5,7.5-8.5l1-6.2l0.2-5.5l-3.2-7.7c0,0-0.5-3.2-5.2-6.2
							c-4.5-3-8.7-5.7-8.7-5.7l-4.7,1l-2.5,3.5L413.9,678.9z"/>
					</g>
					<g class="st6">
						<path class="st7" d="M451.6,589.6l-7,0.7l-6.7-2.7c0,0-3.5-2-4.5-3.5c-1-1.7-4.5-6.5-4.5-6.5l-1-1.2l-1.2-0.7l-3.7,3.2
							c-3-0.5-4.2-0.7-4.2-0.7s0.5,2.5,1.7-1.5c1.5-4,2-6.7,2-6.7l-1.2-1c0,0-3.2,3-3.2,4c0,1-0.7,0-1,3.7c-0.5,3.7-1,5.2-0.2,5.7
							s1.5,2.7,3.5,3.5c2,0.7,3.2,3.5,3.2,3.5s-5.7-4-6.2-4.7c-0.7-0.7-3.5-4.7-3.5-4.7l-2-2.5l-4-1.5c0,0-0.7-0.5-2-0.5
							c-1.2,0.2-3.7,1.2-3.7,1.2l1,2.2l-3.5-1.5c0,0,0.2-3.2,1.5-4c1.2-0.7,2.7-3.2,6.2-4.2s1.2,0.2,6.2-2c5-2,8.5-4,9.7-4.2
							s3.2,0.2,5.2-0.7c2.2-0.7,5-2,5-2l5-6.2l4.2-7.5h3.5l5,1.2l-2,1.7c0,0-4.2-0.5-4.5,0.2c-0.2,0.7-0.7,3-1.5,4.2
							c-0.7,1.2-2,4-2,4l-1,1.5l3,5.2l-4-2.5c0,0-2.2-1.7-2.7-1c-0.5,0.7-2.2,1.7-2.2,1.7l-2,3l-1,3c0,0-1.5-0.5-0.5,1.7
							c0.7,2.2,0.7,2.2,0.7,2.2s2,3.5,4.2,5.2c2.2,1.7,2,1.7,3.2,2.5c1.2,0.7,2.2,1.7,3.7,2.2s0.7,0.5,3,1.5
							c2.2,0.7,5.7,2.5,5.7,2.5l1,2.5"/>
						<path class="st10" d="M418.6,568.3l-6.5,1l-7.2,2.2l-4.7,0.5c0,0-2.2,0.2-3.2-0.2c-0.7-0.2-3.7,0-3.7,0h-1c0,0-1.7-0.5-3-1.2
							c-1.5-0.5-3.5-1.2-3.5-1.2s-2,0.2-2.5-1c-0.5-1.2-2.2-4.2-2.2-4.2s-0.7-0.5-1.5-1.5c-0.7-1-3.7-3.2-3.7-3.2l-2-1.7l0.2-1.7
							l2.5-2.2l3-1.5l2.5-1c0,0,2.7-2.2,1.2-4c-1.5-1.7-1.7-1.2-2.5-2.7c-0.7-1.5-2-4.5-2.2-5.5s-1.2-4-1.2-4s-2.7,2.5,0.2-1.7
							c3.2-4.2,1.7-3,3.2-4.2c1.5-1.5,3.2-2.7,3.2-2.7l2.7-2c0,0,4.5-1.5,5.2-1.2c0.7,0.2,2,0.5,5.2,1c3,0.5,3.2,0,5.7,0.7
							c2.5,1,5.5,1,5.5,1l0.7-4.7c0,0,1.7-4.2,3-4.7s5.5-2.7,6.2-2.5c0.7,0.2,4,1.5,4,1.5s1-1.2,2.5,1.2c1.2,2.5,1.2,2.5,1.2,2.5v2
							l3.7,1c0,0,2-1,2.7-0.5c0.7,0.2,2.2,0.2,2.2,0.2l2.7,1c0,0,1,0,1.5,1.2c0.5,1.2,1.5,4,1,5c-0.2,0.7-1.2,3-1.2,3s0.2,0.7,0,2
							c-0.5,1.2-1,2.7-1,2.7l0.5,2.5l3.7,2.2c0,0,1.5,1.7,1.2,2.7c-0.2,0.7-1.2,3.7-2.2,4.2c-1,0.7-3.7,4-4.2,5.5
							c-0.5,1.5-5.5,10-6,10.7c-0.5,0.7-3.5,3.2-3.5,3.2c-1.7,0.5-6,0.7-6,0.7L418.6,568.3z"/>
						<path class="st9" d="M404.2,557.6l-2-3.5l0.5-4.2l6.2-5l5.2-2.2l1,0.7c0,0,0.7,0.5,0.2,2c-0.5,1.5-1.2,3.5-1.2,3.5l-2,3
							l-4.2,2l4,0.7l4-3.7l1.2-2.7l1.5-4c0,0,1.2-0.2,2.2,0.2c0.7,0.2,2.5,1,2.5,1s0.5,0.2,1,0.5c0.5,0.2,1.2,0.7,1.7,1.5
							c0.7,1.2,1.7,2.2,1.7,2.2l1.7-1c0,0-0.5-1.2-1.7-1.5c-1.2-0.5-6.2-5.5-6.2-5.5l-4.5-0.7l-4-0.2l-5.7,2.5c0,0-2.5,0.5-4.5,3.7
							c-2.2,3.5-4.2,6.5-4.2,6.5l0.7,3.5l2.5,1.7L404.2,557.6z"/>
					</g>
					<g class="st6">
						<path class="st10" d="M384.7,787.1l-1-7.2l-2.5-8l-0.5-5.2c0,0-0.2-2.5,0.2-3.5c0.2-1,0-4.2,0-4.2v-1c0,0,0.7-2,1.2-3.5
							c0.5-1.5,1.2-3.7,1.2-3.7s-0.2-2.2,1-2.7c1.2-0.5,4.7-2.5,4.7-2.5s0.7-0.7,1.7-1.5c1-0.7,3.5-4,3.5-4l1.7-2.2l2,0.2l2.5,2.7
							l1.5,3.5l1,3c0,0,2.5,3,4.5,1.2s1.5-2,3.2-2.7c1.7-0.7,5-2,6.2-2.5c1.2-0.2,4.5-1.2,4.5-1.2s-2.7-3.2,2,0.5
							c4.7,3.5,3.2,2,4.7,3.5c1.5,1.7,3,3.5,3,3.5l2.2,3c0,0,1.7,5,1.5,6c-0.2,1-0.5,2.2-1,5.7c-0.5,3.5,0.2,3.7-1,6.5
							c-1,2.7-1,6-1,6l5.5,1c0,0,4.7,2,5.2,3.2c0.5,1.2,3.2,6.2,2.7,7c-0.2,1-1.5,4.5-1.5,4.5s1.2,1.2-1.2,2.7
							c-2.7,1.5-2.7,1.5-2.7,1.5h-2.2l-1.2,4.2c0,0,1,2.2,0.7,3c-0.2,1-0.2,2.5-0.2,2.5l-1.2,3.2c0,0,0,1-1.2,1.7
							c-1.2,0.5-4.5,1.5-5.5,1.2c-1-0.2-3.5-1.2-3.5-1.2s-0.7,0.5-2.2,0c-1.2-0.5-3.2-1.2-3.2-1.2l-2.7,0.5l-2.5,4c0,0-2,1.7-3,1.5
							c-1-0.2-4.2-1.5-4.7-2.5c-0.7-1-4.5-4.2-6.2-4.7c-1.5-0.5-11-6.2-12-6.7c-0.7-0.7-3.7-3.7-3.7-3.7c-0.7-2-0.7-6.7-0.7-6.7
							L384.7,787.1z"/>
					</g>
					<g>
						<path class="st7" d="M530.9,597l-1-9.5l3.7-9c0,0,2.5-4.7,4.7-6c2.2-1.2,8.7-6,8.7-6l1.7-1.5l1-1.7l-4.2-5
							c0.5-4,1.2-5.7,1.2-5.7s-3.2,0.5,2.2,2.5c5.2,2,9,2.7,9,2.7l1.5-1.7c0,0-4-4.5-5.2-4.5c-1.2,0,0-1-5-1.5c-5-0.5-7-1.2-7.7-0.2
							c-0.7,1-3.7,2-4.7,4.7c-1,2.7-4.7,4.5-4.7,4.5s5.2-7.5,6.5-8.5c1.2-1,6.5-4.5,6.5-4.5l3.5-2.5l2-5.2c0,0,0.7-1,0.5-2.7
							c-0.2-1.7-1.7-5-1.7-5l-3.2,1.5l2.2-4.7c0,0,4.2,0.2,5.2,2c1,1.7,4.2,3.7,5.5,8.5c1.2,4.7-0.2,1.7,2.7,8.2
							c2.7,6.7,5.5,11.5,5.5,13.2c0.2,1.7-0.2,4.2,0.7,7.2c1,3,2.7,6.7,2.7,6.7l8.2,7l10,5.7v4.7l-1.5,6.7l-2.5-2.7
							c0,0,0.7-5.7-0.2-6.2c-1.2-0.5-4-1-5.7-2c-1.7-1-5.5-2.7-5.5-2.7l-2.2-1.2l-7,4l3.2-5.2c0,0,2.5-3,1.5-3.7s-2.2-3-2.2-3
							l-4.2-2.7l-4.2-1.5c0,0,0.7-2-2.2-0.7c-3,1-3,1-3,1s-4.7,2.5-7.2,5.5s-2.2,2.7-3.2,4.5c-1,1.7-2.5,3-3,5c-0.7,2-0.7,1-2,4
							c-1,3-3.2,8-3.2,8l-3.5,1.2"/>
						<path class="st8" d="M559.6,552.4l-1.2-8.7l-3-9.7l-0.7-6.2c0,0-0.2-3,0.2-4.2c0.5-1.2,0.2-5.2,0.2-5.2V517
							c0,0,0.7-2.2,1.5-4.2c0.7-2,1.7-4.5,1.7-4.5s-0.2-2.7,1.2-3.5c1.5-0.7,6-3,6-3s0.7-1,2-1.7c1.2-1,4.5-5,4.5-5l2.2-2.7l2.5,0.5
							l3.2,3.2l2,4.2l1.2,3.5c0,0,3,3.7,5.5,1.5s1.7-2.5,3.7-3.5s6-2.5,7.5-3c1.5-0.2,5.2-1.5,5.2-1.5s-3.5-3.7,2.5,0.5
							c5.7,4.2,4,2.2,5.7,4.2c2,2,3.7,4.2,3.7,4.2l2.5,3.5c0,0,2.2,6,1.7,7.2c-0.5,1.2-0.5,2.7-1.2,7c-0.5,4,0.2,4.5-1,7.7
							c-1.2,3.5-1.2,7.2-1.2,7.2l6.5,1c0,0,5.5,2.5,6.2,4s3.7,7.5,3.5,8.5c-0.5,1.2-2,5.2-2,5.2s1.7,1.5-1.5,3.2
							c-3.2,1.7-3.2,1.7-3.2,1.7h-2.5l-1.5,5c0,0,1.2,2.5,0.7,3.7c-0.5,1.2-0.2,3-0.2,3l-1.5,3.7c0,0,0,1.2-1.5,2
							c-1.5,0.7-5.5,2-6.5,1.5c-1.2-0.5-4.2-1.5-4.2-1.5s-1,0.5-2.5,0c-1.5-0.5-3.7-1.5-3.7-1.5l-3.2,0.5l-3,5c0,0-2.5,2.2-3.7,1.7
							c-1.2-0.5-5-1.7-5.7-3c-1-1.2-5.5-5-7.5-5.7c-2-0.7-13.2-7.5-14.2-8.2c-1-0.7-4.5-4.7-4.5-4.7c-0.7-2.5-1-8.2-1-8.2
							L559.6,552.4z"/>
						<path class="st9" d="M573.8,532.9l4.7-2.5l5.7,0.7l7,8.5l3,7.2l-1,1.5c0,0-0.7,1-2.7,0.2c-2-0.7-4.5-1.7-4.5-1.7l-4.2-2.7
							l-2.7-5.7l-1,5.2l5,5.2l3.7,1.7l5.2,2c0,0,0.2,1.7-0.2,3c-0.5,1.2-1.2,3.5-1.2,3.5s-0.2,0.7-0.7,1.5c-0.5,0.7-1.2,1.7-2,2.2
							c-1.7,1-3,2.2-3,2.2l1.2,2.2c0,0,1.5-0.7,2-2.2c0.5-1.5,7.5-8.5,7.5-8.5l1-6.2l0.2-5.5l-3.2-7.7c0,0-0.5-3.2-5.2-6.2
							c-4.5-3-8.7-5.7-8.7-5.7l-4.7,1l-2.5,3.5L573.8,532.9z"/>
					</g>
					<g>
						<path class="st7" d="M522.2,806.3l-1-9.5l3.7-9c0,0,2.5-4.7,4.7-6c2.2-1.2,8.7-6,8.7-6l1.7-1.5l1-1.7l-4.2-5
							c0.5-4,1.2-5.7,1.2-5.7s-3.2,0.5,2.2,2.5c5.2,2,9,2.7,9,2.7l1.5-1.7c0,0-4-4.5-5.2-4.5s0-1-5-1.5c-5-0.5-7-1.2-7.7-0.2
							s-3.7,2-4.7,4.7c-1,2.7-4.7,4.5-4.7,4.5s5.2-7.5,6.5-8.5c1.2-1,6.5-4.5,6.5-4.5l3.5-2.5l2-5.2c0,0,0.7-1,0.5-2.7s-1.7-5-1.7-5
							l-3.2,1.5l2.2-4.7c0,0,4.2,0.2,5.2,2c1,1.7,4.2,3.7,5.5,8.5c1.2,4.7-0.2,1.7,2.7,8.2c2.7,6.7,5.5,11.5,5.5,13.2
							c0.2,1.7-0.2,4.2,0.7,7.2c1,3,2.7,6.7,2.7,6.7l8.2,7l10,5.7v4.7l-1.5,6.7l-2.5-2.7c0,0,0.7-5.7-0.2-6.2c-1.2-0.5-4-1-5.7-2
							c-1.7-1-5.5-2.7-5.5-2.7l-2.2-1.2l-7,4l3.2-5.2c0,0,2.5-3,1.5-3.7c-1-0.7-2.2-3-2.2-3l-4.2-2.7l-4.2-1.5c0,0,0.7-2-2.2-0.7
							c-3,1-3,1-3,1s-4.7,2.5-7.2,5.5c-2.5,3-2.2,2.7-3.2,4.5c-1,1.7-2.5,3-3,5c-0.7,2-0.7,1-2,4c-1,3-3.2,8-3.2,8l-3.5,1.2"/>
						<path class="st8" d="M550.9,761.7l-1.2-8.7l-3-9.7l-0.7-6.2c0,0-0.2-3,0.2-4.2c0.5-1.2,0.2-5.2,0.2-5.2v-1.2
							c0,0,0.7-2.2,1.5-4.2c0.7-2,1.7-4.5,1.7-4.5s-0.2-2.7,1.2-3.5c1.5-0.7,6-3,6-3s0.7-1,2-1.7c1.2-1,4.5-5,4.5-5l2.2-2.7l2.5,0.5
							l3.2,3.2l2,4.2l1.2,3.5c0,0,3,3.7,5.5,1.5s1.7-2.5,3.7-3.5s6-2.5,7.5-3c1.5-0.2,5.2-1.5,5.2-1.5s-3.5-3.7,2.5,0.5
							c5.7,4.2,4,2.2,5.7,4.2c2,2,3.7,4.2,3.7,4.2l2.5,3.5c0,0,2.2,6,1.7,7.2s-0.5,2.7-1.2,7c-0.5,4,0.2,4.5-1,7.7
							c-1.2,3.5-1.2,7.2-1.2,7.2l6.5,1c0,0,5.5,2.5,6.2,4c0.7,1.5,3.7,7.5,3.5,8.5c-0.5,1.2-2,5.2-2,5.2s1.7,1.5-1.5,3.2
							c-3.2,1.7-3.2,1.7-3.2,1.7h-2.5l-1.5,5c0,0,1.2,2.5,0.7,3.7c-0.5,1.2-0.2,3-0.2,3l-1.5,3.7c0,0,0,1.2-1.5,2s-5.5,2-6.5,1.5
							c-1.2-0.5-4.2-1.5-4.2-1.5s-1,0.5-2.5,0s-3.7-1.5-3.7-1.5l-3.2,0.5l-3,5c0,0-2.5,2.2-3.7,1.7c-1.2-0.5-5-1.7-5.7-3
							c-0.7-1.2-5.5-5-7.5-5.7c-2-0.7-13.2-7.5-14.2-8.2c-1-0.7-4.5-4.7-4.5-4.7c-0.7-2.5-1-8.2-1-8.2L550.9,761.7z"/>
						<path class="st9" d="M565.1,742.2l4.7-2.5l5.7,0.7l7,8.5l3,7.2l-1,1.5c0,0-0.7,1-2.7,0.2c-2-0.7-4.5-1.7-4.5-1.7l-4.2-2.7
							l-2.7-5.7l-1,5.2l5,5.2l3.7,1.7l5.2,2c0,0,0.2,1.7-0.2,3c-0.5,1.2-1.2,3.5-1.2,3.5s-0.2,0.7-0.7,1.5c-0.5,0.7-1.2,1.7-2,2.2
							c-1.7,1.2-3,2.5-3,2.5l1.2,2.2c0,0,1.5-0.7,2-2.2s7.5-8.5,7.5-8.5l1-6.2l0.2-5.5l-3.2-7.7c0,0-0.5-3.2-5.2-6.2
							c-4.5-3-8.7-5.7-8.7-5.7l-4.7,1l-2.5,3.5L565.1,742.2z"/>
					</g>
					<g class="st11">
						<path class="st7" d="M418.4,694.6l-9.5,1l-9-3.7c0,0-4.7-2.5-6-4.7s-6-8.7-6-8.7l-1.5-1.7l-1.7-1l-5,4.2
							c-4-0.5-5.7-1.2-5.7-1.2s0.5,3.2,2.5-2.2c2-5.2,2.7-9,2.7-9l-1.7-1.5c0,0-4.5,4-4.5,5.2c0,1.2-1,0-1.5,5c-0.5,5-1.2,7-0.2,7.7
							c1,0.7,2,3.7,4.7,4.7s4.5,4.7,4.5,4.7s-7.5-5.2-8.5-6.5c-1-1.2-4.5-6.5-4.5-6.5l-2.5-3.5l-5.2-2c0,0-1-0.7-2.7-0.5
							s-5,1.7-5,1.7l1.5,3.2l-4.7-2.2c0,0,0.2-4.2,2-5.2c1.7-1,3.7-4.2,8.5-5.5c4.7-1.2,1.7,0.2,8.2-2.7c6.7-2.7,11.5-5.5,13.2-5.5
							c1.7-0.2,4.2,0.2,7.2-0.7c3-1,6.7-2.7,6.7-2.7l7-8.2l5.7-10h4.7l6.7,1.5l-2.7,2.5c0,0-5.7-0.7-6.2,0.2c-0.5,1.2-1,4-2,5.7
							c-1,1.7-2.7,5.5-2.7,5.5l-1.2,2.2l4,7l-5.2-3.2c0,0-3-2.5-3.7-1.5c-0.7,1-3,2.5-3,2.5l-2.7,4.2l-1.5,4.2c0,0-2-0.7-0.7,2.2
							c1,3,1,3,1,3s2.5,4.7,5.7,7.2c3,2.5,2.7,2.2,4.5,3.2c1.7,1,3,2.5,5,3c2,0.7,1,0.7,4,2c3,1,8,3.2,8,3.2l1.2,3.5"/>
						<path class="st10" d="M373.7,666.1l-8.7,1.2l-9.7,3l-6.2,0.7c0,0-3,0.2-4.2-0.2c-1.2-0.5-5.2-0.2-5.2-0.2h-1.2
							c0,0-2.2-0.7-4.2-1.5c-2-0.7-4.5-1.7-4.5-1.7s-2.7,0.2-3.5-1.2c-0.7-1.5-3-6-3-6s-1-0.7-1.7-2c-1-1.2-5-4.5-5-4.5l-2.7-2.2
							l0.5-2.5l3.2-3.2l4.2-2l3.5-1.2c0,0,3.7-3,1.5-5.5s-2.5-1.7-3.5-3.7c-1-2-2.5-6-3-7.5c-0.2-1.5-1.5-5.2-1.5-5.2
							s-3.7,3.5,0.5-2.5c4.2-5.7,2.2-4,4.2-5.7c2-2,4.2-3.7,4.2-3.7l3.5-2.5c0,0,6-2.2,7.2-1.7c1.2,0.5,2.7,0.5,7,1.2
							c4,0.5,4.5-0.2,7.7,1c3.5,1.2,7.2,1.2,7.2,1.2l1-6.5c0,0,2.5-5.5,4-6.2c1.5-0.7,7.5-3.7,8.5-3.5c1.2,0.5,5.2,2,5.2,2
							s1.5-1.7,3.2,1.7c1.7,3.2,1.7,3.2,1.7,3.2v2.5l5,1.5c0,0,2.5-1.2,3.7-0.7c1.2,0.5,3,0.2,3,0.2l3.7,1.5c0,0,1.2,0,2,1.5
							c0.7,1.5,2,5.5,1.5,6.5c-0.5,1.2-1.5,4.2-1.5,4.2s0.5,1,0,2.5c-0.5,1.5-1.5,3.7-1.5,3.7l0.5,3.2l5,3c0,0,2.2,2.5,1.7,3.7
							c-0.5,1.2-1.7,5-3,5.7c-1.2,1-5,5.5-5.7,7.5c-0.7,2-7.5,13.2-8.2,14.2c-0.7,1-4.7,4.5-4.7,4.5c-2.5,0.7-8.2,1-8.2,1
							L373.7,666.1z"/>
						<path class="st9" d="M354.3,651.9l-2.5-4.7l0.7-5.7l8.5-7l7.2-3l1.5,1c0,0,1,0.7,0.2,2.7c-0.7,2-1.7,4.5-1.7,4.5l-2.7,4.2
							l-5.7,2.7l5.2,1l5.2-5l1.7-3.7l2-5.2c0,0,1.7-0.2,3,0.2c1.2,0.5,3.5,1.2,3.5,1.2s0.7,0.2,1.5,0.7c0.7,0.5,1.7,1.2,2.2,2
							c1,1.7,2.2,3,2.2,3l2.2-1.2c0,0-0.7-1.5-2.2-2s-8.5-7.5-8.5-7.5l-6.2-1l-5.5-0.2l-7.7,3.2c0,0-3.2,0.5-6.2,5.2
							c-3,4.5-5.7,8.7-5.7,8.7l1,4.7l3.5,2.5L354.3,651.9z"/>
					</g>
					<g>
						<path class="st7" d="M411.2,598.8l1-9.5l-3.7-9c0,0-2.5-4.7-4.7-6c-2.2-1.2-8.7-6-8.7-6l-1.7-1.5l-1-1.7l4.2-5
							c-0.5-4-1.2-5.7-1.2-5.7s3.2,0.5-2.2,2.5c-5.2,2-9,2.7-9,2.7l-1.5-1.7c0,0,4-4.5,5.2-4.5s0-1,5-1.5c5-0.5,7-1.2,7.7-0.2
							c0.7,1,3.7,2,4.7,4.7s4.7,4.5,4.7,4.5s-5.2-7.5-6.5-8.5c-1.2-1-6.5-4.5-6.5-4.5l-3.5-2.5l-2-5.2c0,0-0.7-1-0.5-2.7
							c0.2-1.7,1.7-5,1.7-5l3.2,1.5l-2.2-4.7c0,0-4.2,0.2-5.2,2c-1,1.7-4.2,3.7-5.5,8.5c-1.2,4.7,0.2,1.7-2.7,8.2
							c-2.7,6.7-5.5,11.5-5.5,13.2c-0.2,1.7,0.2,4.2-0.7,7.2c-1,3-2.7,6.7-2.7,6.7l-8.2,7l-10,5.7v4.7l1.5,6.7l2.5-2.7
							c0,0-0.7-5.7,0.2-6.2c1.2-0.5,4-1,5.7-2c1.7-1,5.5-2.7,5.5-2.7l2.2-1.2l7,4l-3.2-5.2c0,0-2.5-3-1.5-3.7c1-0.7,2.2-3,2.2-3
							l4.2-2.7l4.2-1.5c0,0-0.7-2,2.2-0.7c3,1,3,1,3,1s4.7,2.5,7.2,5.5s2.2,2.7,3.2,4.5c1,1.7,2.5,3,3,5c0.7,2,0.7,1,2,4
							c1,3,3.2,8,3.2,8l3.5,1.2"/>
						<path class="st8" d="M382.5,554.1l1.2-8.7l3-9.7l0.7-6.2c0,0,0.2-3-0.2-4.2c-0.5-1.2-0.2-5.2-0.2-5.2v-1.2
							c0,0-0.7-2.2-1.5-4.2c-0.7-2-1.7-4.5-1.7-4.5s0.2-2.7-1.2-3.5s-6-3-6-3s-0.7-1-2-2s-4.5-5-4.5-5l-2.2-2.7l-2.5,0.5l-3.2,3.2
							l-2,4.2l-1.2,3.5c0,0-3,3.7-5.5,1.5s-1.7-2.5-3.7-3.5c-2-1-6-2.5-7.5-3c-1.5-0.2-5.2-1.5-5.2-1.5s3.5-3.7-2.5,0.5
							c-5.7,4.2-4,2.2-5.7,4.2c-2,2-3.7,4.2-3.7,4.2l-2.5,3.5c0,0-2.2,6-1.7,7.2c0.5,1.2,0.5,2.7,1.2,7c0.5,4-0.2,4.5,1,7.7
							c1.2,3.5,1.2,7.2,1.2,7.2l-6.5,1c0,0-5.5,2.5-6.2,4c-0.7,1.5-3.7,7.5-3.5,8.5c0.5,1.2,2,5.2,2,5.2s-1.7,1.5,1.5,3.2
							c3.2,1.7,3.2,1.7,3.2,1.7h2.5l1.5,5c0,0-1.2,2.5-0.7,3.7c0.5,1.2,0.2,3,0.2,3l1.5,3.7c0,0,0,1.2,1.5,2c1.5,0.7,5.5,2,6.5,1.5
							c1.2-0.5,4.2-1.5,4.2-1.5s1,0.5,2.5,0s3.7-1.5,3.7-1.5l3.2,0.5l3,5c0,0,2.5,2.2,3.7,1.7s5-1.7,5.7-3c1-1.2,5.5-5,7.5-5.7
							c2-0.7,13.2-7.5,14.2-8.2c1-0.7,4.5-4.5,4.5-4.5c0.7-2.5,1-8.2,1-8.2L382.5,554.1z"/>
						<path class="st9" d="M368.3,534.7l-4.7-2.5l-5.7,0.7l-7,8.5l-3,7.2l1,1.5c0,0,0.7,1,2.7,0.2c2-0.7,4.5-1.7,4.5-1.7l4.2-2.7
							l2.7-5.7l1,5.2l-5,5.2l-3.7,1.7l-5.2,2c0,0-0.2,1.7,0.2,3s1.2,3.5,1.2,3.5s0.2,0.7,0.7,1.5c0.5,0.7,1.2,1.7,2,2.2
							c1.7,1,3,2.2,3,2.2l-1.2,2.2c0,0-1.5-0.7-2-2.2c-0.5-1.5-7.5-8.5-7.5-8.5l-1-6.2l-0.2-5.5l3.2-7.7c0,0,0.5-3.2,5.2-6.2
							c4.5-3,8.7-5.7,8.7-5.7l4.7,1l2.5,3.5L368.3,534.7z"/>
					</g>
					<g>
						<path class="st7" d="M419.9,808.1l1-9.5l-3.7-9c0,0-2.5-4.7-4.7-6c-2.2-1.2-8.7-6-8.7-6l-1.7-1.5l-1-1.7l4.2-5
							c-0.5-4-1.2-5.7-1.2-5.7s3.2,0.5-2.2,2.5c-5.2,2-9,2.7-9,2.7l-1.5-1.7c0,0,4-4.5,5.2-4.5s0-1,5-1.5c5-0.5,7-1.2,7.7-0.2
							c0.7,1,3.7,2,4.7,4.7c1,2.7,4.7,4.5,4.7,4.5s-5.2-7.5-6.5-8.5c-1.2-0.7-6.5-4.5-6.5-4.5l-3.5-2.5l-2-5.2c0,0-0.7-1-0.5-2.7
							c0.2-1.7,1.7-5,1.7-5l3.2,1.5l-2.2-4.7c0,0-4.2,0.2-5.2,2c-1,1.7-4.2,3.7-5.5,8.5c-1.2,4.7,0.2,1.7-2.7,8.2
							c-2.7,6.7-5.5,11.5-5.5,13.2c-0.2,1.7,0.2,4.2-0.7,7.2c-1,3-2.7,6.7-2.7,6.7l-8.2,7l-10,5.7v4.7l1.5,6.7l2.5-2.7
							c0,0-0.7-5.7,0.2-6.2c1.2-0.5,4-1,5.7-2c1.7-1,5.5-2.7,5.5-2.7l2.2-1.2l7,4l-3.2-5.2c0,0-2.5-3-1.5-3.7s2.2-3,2.2-3l4.2-2.7
							l4.2-1.5c0,0-0.7-2,2.2-0.7c3,1,3,1,3,1s4.7,2.5,7.2,5.5c2.5,3,2.2,2.7,3.2,4.5c1,1.7,2.5,3,3,5c0.7,2,0.7,1,2,4
							c1,3,3.2,8,3.2,8l3.5,1.2"/>
						<path class="st8" d="M391.4,763.4l1.2-8.7l3-9.7l0.7-6.2c0,0,0.2-3-0.2-4.2c-0.5-1.2-0.2-5.2-0.2-5.2V728c0,0-0.7-2.2-1.5-4.2
							c-0.7-2-1.7-4.5-1.7-4.5s0.2-2.7-1.2-3.5s-6-3-6-3s-0.7-1-2-2s-4.5-5-4.5-5l-2.2-2.7l-2.5,0.5l-3.2,3.2l-2,4.2l-1.2,3.5
							c0,0-3,3.7-5.5,1.5c-2.5-2.2-1.7-2.5-3.7-3.5c-2-1-6-2.5-7.5-3c-1.5-0.2-5.2-1.5-5.2-1.5s3.5-3.7-2.5,0.5
							c-5.7,4.2-4,2.2-5.7,4.2c-2,2-3.7,4.2-3.7,4.2l-2.5,3.5c0,0-2.2,6-1.7,7.2c0.5,1.2,0.5,2.7,1.2,7c0.5,4-0.2,4.5,1,7.7
							c1.2,3.5,1.2,7.2,1.2,7.2l-6.5,1c0,0-5.5,2.5-6.2,4c-0.7,1.5-3.7,7.5-3.5,8.5c0.5,1.2,2,5.2,2,5.2s-1.7,1.5,1.5,3.2
							c3.2,1.7,3.2,1.7,3.2,1.7h2.5l1.5,5.2c0,0-1.2,2.5-0.7,3.7c0.5,1.2,0.2,3,0.2,3l1.5,3.7c0,0,0,1.2,1.5,2
							c1.5,0.7,5.5,2,6.5,1.5c1.2-0.5,4.2-1.5,4.2-1.5s1,0.5,2.5,0c1.5-0.5,3.7-1.5,3.7-1.5l3.2,0.5l3,5c0,0,2.5,2.2,3.7,1.7
							s5-1.7,5.7-3c1-1.2,5.5-5,7.5-5.7c2-0.7,13.2-7.5,14.2-8.2c1-0.7,4.5-4.7,4.5-4.7c0.7-2.5,1-8.2,1-8.2L391.4,763.4z"/>
						<path class="st9" d="M377,744l-4.7-2.5l-5.7,0.7l-7,8.5l-3,7.2l1,1.5c0,0,0.7,1,2.7,0.2c2-0.7,4.5-1.7,4.5-1.7l4.2-2.7
							l2.7-5.7l1,5.2l-5,5.2l-3.7,1.7l-5.2,2c0,0-0.2,1.7,0.2,3c0.5,1.2,1.2,3.5,1.2,3.5s0.2,0.7,0.7,1.5c0.5,0.7,1.2,1.7,2,2.2
							c1.7,1,3,2.5,3,2.5l-1.2,2.2c0,0-1.5-0.7-2-2.2c-0.5-1.5-7.5-8.5-7.5-8.5l-1-6.2l-0.7-5.7l3.2-7.7c0,0,0.5-3.2,5.2-6.2
							c4.5-3,8.7-5.7,8.7-5.7l4.7,1l2.5,3.5L377,744z"/>
					</g>
					<g class="st11">
						<path class="st7" d="M651.1,702.6l1-9.5l-3.7-9c0,0-2.5-4.7-4.7-6c-2.2-1.2-8.7-6-8.7-6l-1.7-1.5l-1-1.7l4.2-5
							c-0.7-4-1.2-5.7-1.2-5.7s3.2,0.5-2.2,2.5c-5.2,2-9,2.7-9,2.7l-1.5-1.7c0,0,4-4.5,5.2-4.5c1.2,0,0-1,5-1.5c5-0.5,7-1.2,7.7-0.2
							c0.7,1,3.7,2,4.7,4.7c1,2.7,4.7,4.5,4.7,4.5s-5.2-7.5-6.5-8.5c-1.2-1-6.5-4.5-6.5-4.5l-3.5-2.5l-2-5.2c0,0-0.7-1-0.5-2.7
							c0.2-1.7,1.7-5,1.7-5l3.2,1.5l-2.2-4.7c0,0-4.2,0.2-5.2,2c-1,1.7-4.2,3.7-5.5,8.5c-1.2,4.7,0.2,1.7-2.5,8.2
							c-2.7,6.7-5.5,11.5-5.5,13.2c-0.2,1.7,0.2,4.2-0.7,7.2c-1,3-2.7,6.7-2.7,6.7l-8.2,7l-10,5.7v4.7l1.5,6.7l2.5-2.7
							c0,0-0.7-5.7,0.2-6.2c1.2-0.5,4-1,5.7-2c1.7-1,5.5-2.7,5.5-2.7l2.2-1.2l7,4l-3.2-5.2c0,0-2.5-3-1.5-3.7c1-0.7,2.5-3,2.5-3
							l4.2-2.7l4.2-1.5c0,0-0.7-2,2.2-0.7c3,1,3,1,3,1s4.7,2.5,7.2,5.7c2.5,3,2.2,2.7,3.2,4.5c1,1.7,2.5,3,3,5c0.7,2,0.7,1,2,4
							c1,3,3.2,8,3.2,8l3.5,1.2"/>
						<path class="st8" d="M622.7,657.9l1.2-8.7l3-9.7l0.7-6.2c0,0,0.2-3-0.2-4.2c-0.5-1.2-0.2-5.2-0.2-5.2v-1.2
							c0,0-0.7-2.2-1.5-4.2c-0.7-2-1.7-4.5-1.7-4.5s0.2-2.7-1.2-3.5c-1.5-0.7-6-3-6-3s-0.7-1-2-2c-1.2-1-4.5-5-4.5-5l-2.2-2.7
							l-2.5,0.5l-3.2,3.2l-2,4.2L599,609c0,0-3,3.7-5.5,1.5c-2.5-2.2-1.7-2.5-3.7-3.5c-2-1-6-2.5-7.5-3c-1.5-0.2-5.2-1.5-5.2-1.5
							s3.5-3.7-2.5,0.5c-5.7,4.2-4,2.2-5.7,4.2c-2,2-3.7,4.2-3.7,4.2l-2.5,3.5c0,0-2.2,6-1.7,7.2c0.5,1.2,0.5,2.7,1.2,7
							c0.5,4-0.2,4.5,1,7.7c1.2,3.5,1.2,7.2,1.2,7.2l-6.5,1c0,0-5.5,2.5-6.2,4c-0.7,1.5-3.7,7.5-3.5,8.5c0.5,1.2,2,5.2,2,5.2
							s-1.7,1.5,1.7,3.2c3.2,1.7,3.2,1.7,3.2,1.7h2.5l1.5,5c0,0-1.2,2.5-0.7,3.7c0.5,1.2,0.2,3,0.2,3l1.5,3.7c0,0,0,1.2,1.5,2
							c1.5,0.7,5.5,2,6.5,1.5c1.2-0.5,4.2-1.5,4.2-1.5s1,0.5,2.5,0c1.5-0.5,3.7-1.5,3.7-1.5l3.2,0.5l3,5c0,0,2.5,2.2,3.7,1.7
							c1.2-0.5,5-1.7,5.7-3c0.7-1.2,5.5-5,7.5-5.7c2-0.7,13.2-7.5,14.2-8.2c1-0.7,4.5-4.7,4.5-4.7c0.7-2.5,1-8.2,1-8.2L622.7,657.9z
							"/>
						<path class="st9" d="M608.2,638.4l-4.7-2.5l-5.7,0.7l-7,8.5l-3,7.2l1,1.5c0,0,0.7,1,2.7,0.2c2-0.7,4.5-1.7,4.5-1.7l4.2-2.7
							l2.7-5.7l1,5.2l-5,5.2l-3.7,1.7l-5.2,2c0,0-0.2,1.7,0.2,3c0.5,1.2,1.2,3.5,1.2,3.5s0.2,0.7,0.7,1.5c0.5,0.7,1.2,1.7,2,2.2
							c1.7,1,3,2.2,3,2.2l-1.2,2.2c0,0-1.5-0.7-2-2.2c-0.5-1.5-7.5-8.5-7.5-8.5l-1-6.2l-0.2-5.5l3.2-7.7c0,0,0.5-3.2,5.2-6.2
							c4.5-3,8.7-5.7,8.7-5.7l4.7,1l2.5,3.5L608.2,638.4z"/>
					</g>
					<g>
						<path class="st7" d="M422.4,682.3l-1-9.5l3.7-9c0,0,2.5-4.7,4.7-6c2.2-1.2,8.7-6,8.7-6l1.7-1.5l1-1.7l-4.2-5
							c0.5-4,1.2-5.7,1.2-5.7s-3.2,0.5,2.2,2.5c5.2,2,9,2.7,9,2.7l1.5-1.7c0,0-4-4.5-5.2-4.5c-1.2,0,0-1-5-1.5c-5-0.5-7-1.2-7.7-0.2
							c-0.7,1-3.7,2-4.7,4.7c-1,2.7-4.7,4.5-4.7,4.5s5.2-7.5,6.5-8.5c1.2-1,6.5-4.5,6.5-4.5l3.5-2.5l2-5.2c0,0,0.7-1,0.5-2.7
							s-1.7-5-1.7-5l-3.2,1.5l2.2-4.7c0,0,4.2,0.2,5.2,2c1,1.7,4.2,3.7,5.5,8.5c1.2,4.7-0.2,1.7,2.7,8.2c2.7,6.7,5.5,11.5,5.5,13.2
							c0.2,1.7-0.2,4.2,0.7,7.2s2.7,6.7,2.7,6.7l8.2,7l10,5.7v4.7l-1.5,6.7l-2.5-2.7c0,0,0.7-5.7-0.2-6.2c-1.2-0.5-4-1-5.7-2
							c-1.7-1-5.5-2.7-5.5-2.7l-2.2-1.2l-7,4l3.2-5.2c0,0,2.5-3,1.5-3.7c-1-0.7-2.2-3-2.2-3l-4.2-2.7l-4.2-1.5c0,0,0.7-2-2.2-0.7
							c-3,1-3,1-3,1s-4.7,2.5-7.2,5.5s-2.2,2.7-3.2,4.5c-1,1.7-2.5,3-3,5c-0.7,2-0.7,1-2,4c-1,3-3.2,8-3.2,8l-3.5,1.2"/>
						<path class="st8" d="M450.8,637.7l-1.2-8.7l-3-9.7l-0.7-6.2c0,0-0.2-3,0.2-4.2c0.5-1.2,0.2-5.2,0.2-5.2v-1.2
							c0,0,0.7-2.2,1.5-4.2c0.7-2,1.7-4.5,1.7-4.5s-0.2-2.7,1.2-3.5c1.5-0.7,5.7-3,5.7-3s0.7-1,2-2s4.5-5,4.5-5l2.2-2.7l2.5,0.5
							l3,3.5l2,4.2l1.2,3.5c0,0,3,3.7,5.5,1.5s1.7-2.5,3.7-3.5c2-1,6-2.5,7.5-3c1.5-0.2,5.2-1.5,5.2-1.5s-3.5-3.7,2.5,0.5
							c5.7,4.2,4,2.2,5.7,4.2c2,2,3.7,4.2,3.7,4.2l2.5,3.5c0,0,2.2,6,1.7,7.2c-0.5,1.2-0.5,2.7-1.2,7c-0.5,4,0.2,4.5-1,7.7
							c-1.2,3.5-1.2,7.2-1.2,7.2l6.5,1c0,0,5.5,2.5,6.2,4c0.7,1.5,3.7,7.5,3.5,8.5c-0.5,1.2-2,5.2-2,5.2s1.7,1.5-1.7,3.2
							c-3,2.5-3,2.5-3,2.5h-2.5l-1.5,5c0,0,1.2,2.5,0.7,3.7c-0.5,1.2-0.2,3-0.2,3l-1.5,3.7c0,0,0,1.2-1.5,2c-1.5,0.7-5.5,2-6.5,1.5
							c-1.2-0.5-4.2-1.5-4.2-1.5s-1,0.5-2.5,0s-3.7-1.5-3.7-1.5l-3.2,0.5l-3,5c0,0-2.5,2.2-3.7,1.7s-5-1.7-5.7-3
							c-1-1.2-5.5-5-7.5-5.7c-2-0.7-13.2-7.5-14.2-8.2c-1-0.7-4.5-4.5-4.5-4.5c-0.7-2.5-1-8.2-1-8.2L450.8,637.7z"/>
						<path class="st9" d="M465.3,618.2l4.7-2.5l5.7,0.7l7,8.5l3,7.2l-1,1.5c0,0-0.7,1-2.7,0.2c-2-0.7-4.5-1.7-4.5-1.7l-4.2-2.7
							l-2.7-5.7l-1,5.2l5,5.2l3.7,1.7l5.2,2c0,0,0.2,1.7-0.2,3c-0.5,1.2-1.2,3.5-1.2,3.5s-0.2,0.7-0.7,1.5c-0.5,0.7-1.2,1.7-2,2.2
							c-1.7,1-3,2.2-3,2.2l1.2,2.2c0,0,1.5-0.7,2-2.2c0.5-1.5,7.5-8.5,7.5-8.5l1-6.2l0.2-5.5l-3.2-7.7c0,0-0.5-3.2-5.2-6.2
							c-4.5-3-8.7-5.7-8.7-5.7l-4.7,1l-2.5,3.5L465.3,618.2z"/>
					</g>
					<g>
						<path class="st7" d="M515.4,558.4l-7,0.7l-6.7-2.7c0,0-3.5-2-4.5-3.5c-1-1.7-4.5-6.5-4.5-6.5l-1-1.2l-1.2-0.7l-3.7,3.2
							c-3-0.5-4.2-0.7-4.2-0.7s0.5,2.5,1.7-1.5c1.5-4,2-6.7,2-6.7l-1.2-1c0,0-3.2,3-3.2,4c0,1-0.7,0-1,3.7c-0.5,3.7-1,5.2-0.2,5.7
							s1.5,2.7,3.5,3.5c2,0.7,3.2,3.5,3.2,3.5s-5.7-4-6.2-4.7c-0.7-1-3.5-4.7-3.5-4.7l-2-2.5l-4-1.5c0,0-0.7-0.5-2-0.5
							c-1.2,0.2-3.7,1.2-3.7,1.2l1,2.2l-3.5-1.5c0,0,0.2-3.2,1.5-4c1.2-0.7,2.7-3.2,6.2-4.2c3.5-1,1.2,0.2,6.2-2c5-2,8.5-4,9.7-4.2
							c1.2-0.2,3.2,0.2,5.2-0.7c2.2-0.7,5-2,5-2l5-6.2l4.2-7.5h3.5l5,1.2l-2,1.7c0,0-4.2-0.5-4.5,0.2c-0.2,0.7-0.7,3-1.5,4.2
							c-0.7,1.2-2,4-2,4l-1,1.5l3,5.2l-4-2.5c0,0-2.2-1.7-2.7-1c-0.5,0.7-2.2,1.7-2.2,1.7l-2,3l-1.2,3c0,0-1.5-0.5-0.5,1.7
							c0.7,2.2,0.7,2.2,0.7,2.2s2,3.5,4.2,5.2c2.2,1.7,2,1.7,3.2,2.5c1.2,0.7,2.2,1.7,3.7,2.2s0.7,0.5,3,1.5
							c2.2,0.7,5.7,2.5,5.7,2.5l1,2.5"/>
						<path class="st10" d="M482.5,537.4l-6.5,1l-7.2,2.2l-4.7,0.5c0,0-2.2,0.2-3.2-0.2c-0.7-0.2-3.7,0-3.7,0h-1c0,0-1.7-0.5-3-1.2
							c-1.5-0.5-3.5-1.2-3.5-1.2s-2,0.2-2.5-1c-0.5-1.2-2.2-4.2-2.2-4.2s-0.7-0.5-1.5-1.5c-0.7-1-3.7-3.2-3.7-3.2l-2-1.7l0.2-1.7
							l2.5-2.2l3-1.5l2.5-1c0,0,2.7-2.2,1.2-4c-1.5-1.7-1.7-1.2-2.5-2.7s-2-4.5-2.2-5.5c-0.2-1-1.2-4-1.2-4s-2.7,2.5,0.2-1.7
							c3.2-4.2,1.7-3,3.2-4.2c1.5-1.5,3.2-2.7,3.2-2.7l2.5-2c0,0,4.5-1.5,5.2-1.2c0.7,0.2,2,0.5,5.2,1c3,0.5,3.2,0,5.7,0.7
							c2.5,1,5.5,1,5.5,1l0.7-4.7c0,0,1.7-4.2,3-4.7s5.5-2.7,6.2-2.5c0.7,0.2,4,1.5,4,1.5s1-1.2,2.5,1.2c1.2,2.5,1.2,2.5,1.2,2.5v2
							l3.7,1c0,0,2-1,2.7-0.5c0.7,0.2,2.2,0.2,2.2,0.2l2.7,1c0,0,1,0,1.5,1.2c0.5,1.2,1.5,4,1,5c-0.2,0.7-1,3-1,3s0.2,0.7,0,2
							c-0.5,1.2-1,2.7-1,2.7l0.5,2.5l3.7,2.2c0,0,1.5,1.7,1.2,2.7c-0.2,0.7-1.2,3.7-2.2,4.2c-0.7,0.7-3.7,4-4.2,5.5
							c-0.5,1.5-5.5,10-6,10.7c-0.5,0.7-3.5,3.2-3.5,3.2c-1.7,0.5-6,0.7-6,0.7L482.5,537.4z"/>
						<path class="st9" d="M468,526.7l-2-3.5l0.5-4.2l6.2-5l5.5-2.5l1,0.7c0,0,0.7,0.5,0.2,2s-1.2,3.5-1.2,3.5l-2,3l-4.2,2l4,0.7
							l4-3.7l1.2-2.7l1.5-4c0,0,1.2-0.2,2.2,0.2c0.7,0.2,2.5,1,2.5,1s0.5,0.2,1,0.5s1.2,0.7,1.7,1.5c0.7,1.2,1.7,2.2,1.7,2.2l1.7-1
							c0,0-0.5-1.2-1.7-1.5c-1.2-0.5-6.2-5.5-6.2-5.5l-4.5-0.7l-4-0.2l-5.7,2.5c0,0-2.5,0.5-4.5,3.7c-2.2,3.5-4.2,6.5-4.2,6.5
							l0.7,3.5l2.5,1.7L468,526.7z"/>
					</g>
					<g>
						<path class="st7" d="M424.9,793.1l-0.7-7.7l3-7.5c0,0,2.2-4,4-5c1.7-1.2,7.2-5,7.2-5l1.5-1.2l1-1.5l-3.5-4.2
							c0.5-3.5,1-4.7,1-4.7s-2.7,0.5,1.7,2c4.5,1.5,7.5,2.2,7.5,2.2l1.2-1.2c0,0-3.2-3.7-4.5-3.7c-1,0,0-0.7-4.2-1.2
							c-4.2-0.5-5.7-1-6.5-0.2c-0.7,0.7-3.2,1.7-4,4c-0.7,2.2-3.7,3.7-3.7,3.7s4.5-6.2,5.5-7c1-0.7,5.2-3.7,5.2-3.7l3-2.2l1.5-4.5
							c0,0,0.7-0.7,0.5-2.2c-0.2-1.5-1.5-4-1.5-4l-2.5,1.2l1.7-4c0,0,3.5,0.2,4.5,1.5c1,1.5,3.5,3,4.7,7c1,4-0.2,1.5,2.2,7
							c2.2,5.5,4.5,9.5,4.7,11c0.2,1.5-0.2,3.5,0.7,6c1,2.5,2.2,5.5,2.2,5.5l7,5.7l8.2,4.7v4l-1.2,5.5l-2-2.2c0,0,0.7-4.7-0.2-5.2
							c-1-0.2-3.2-0.7-4.7-1.7s-4.5-2.2-4.5-2.2l-1.7-1l-5.7,3.2l2.7-4.5c0,0,2-2.5,1.2-3.2c-0.7-0.7-2-2.5-2-2.5l-3.5-2.2l-3.5-1.2
							c0,0,0.5-1.5-2-0.7c-2.5,1-2.5,1-2.5,1s-4,2.2-6,4.7s-1.7,2.2-2.7,3.7s-2,2.5-2.5,4s-0.7,0.7-1.5,3.2c-1,2.5-2.7,6.5-2.7,6.5
							l-3,1"/>
						<path class="st10" d="M448.6,756.2l-1-7.2l-2.5-8l-0.5-5.2c0,0-0.2-2.5,0.2-3.5c0.2-1,0-4.2,0-4.2v-1c0,0,0.7-2,1.2-3.5
							c0.5-1.5,1.2-3.7,1.2-3.7s-0.2-2.2,1-2.7c1.2-0.5,4.7-2.5,4.7-2.5s0.7-0.7,1.7-1.5c1-0.7,3.5-4,3.5-4l1.7-2.2l2,0.2l2.5,2.7
							l1.5,3.5l1,3c0,0,2.5,3,4.5,1.2s1.5-2,3.2-2.7c1.7-0.7,5-2,6.2-2.5c1.2-0.2,4.5-1.2,4.5-1.2s-2.7-3.2,2,0.5
							c4.7,3.5,3.2,2,4.7,3.5c1.5,1.7,3,3.5,3,3.5l2.2,3c0,0,1.7,5,1.5,6s-0.5,2.2-1,5.7c-0.5,3.5,0,3.7-1,6.5c-1,2.7-1,6-1,6l5.5,1
							c0,0,4.7,2,5.2,3.2c0.5,1.2,3.2,6.2,2.7,7c-0.2,1-1.5,4.5-1.5,4.5s1.2,1.2-1.2,2.7c-2.7,1.5-2.7,1.5-2.7,1.5h-2l-1.2,4.2
							c0,0,1,2.2,0.7,3c-0.2,1-0.2,2.5-0.2,2.5l-1.2,3.2c0,0,0,1-1.2,1.7c-1.2,0.5-4.5,1.5-5.5,1.2c-1-0.2-3.5-1.2-3.5-1.2
							s-0.7,0.5-2.2,0c-1.2-0.5-3.2-1.2-3.2-1.2l-2.7,0.5l-2.5,4c0,0-2,1.7-3,1.5c-1-0.2-4.2-1.5-4.7-2.5c-0.7-1-4.5-4.2-6.2-4.7
							c-1.5-0.5-11-6.2-12-6.7c-0.7-0.7-3.7-3.7-3.7-3.7c-0.7-2-0.7-6.7-0.7-6.7V756.2z"/>
						<path class="st9" d="M460.3,740l4-2.2l4.7,0.7l5.7,7l2.5,6l-0.7,1.2c0,0-0.7,0.7-2.2,0.2s-3.7-1.2-3.7-1.2l-3.5-2.2l-2.2-4.7
							L464,749l4.2,4.2l3,1.5l4.5,1.5c0,0,0.2,1.5-0.2,2.5c-0.2,1-1,2.7-1,2.7s-0.2,0.5-0.5,1.2c-0.5,0.7-1,1.5-1.7,2
							c-1.5,1-2.5,2-2.5,2l1,1.7c0,0,1.2-0.5,1.7-2c0.5-1.2,6.2-7,6.2-7l0.7-5l0.2-4.5l-2.7-6.2c0,0-0.5-2.7-4.2-5
							c-3.7-2.5-7.2-4.7-7.2-4.7l-3.7,0.7l-2,2.7L460.3,740z"/>
					</g>
				</g>
			</g>
		</g>
		<path class="st12" d="M662.1,525.4c11.2-30.4-27.7-218.8-47.6-287.6c-23.2-55.1-64.1-151.2-139.2-115.2
			c-9,56.1,38.7,27.4,54.1,43.7c17,17.5,23.4,49.9,41.4,83.8c27.4,51.9,28.9,87.8,23.9,114.7c-5.7,32.4-21.7,51.9-23,66.6
			c-0.5,4.5,0,13.5,0,13.5c3.2,57.9,1,164.6-3.7,177.4c-5,12.7,10.5-16.2,12.2-22.5c1.2-4.5,5-16.7,7-22.9c-2,7-5.5,21.5-4.5,37.2
			c1,17,17.7,54.9,17.7,66.1c0,25.4-8,38.2-8,38.2s13.7-6.7,16.5-21.2c0.2-2,0.5-3.7,0.7-5.5c1.5,4.7,3.2,10.2,6.2,16
			c7,14.2,15.5,20,15.5,20s-12.2-20-9.5-33.4c1.2-6.5,7.5-25.7,9.7-38.7c9.5,18.5,21.2,25.7,21.2,25.7s-15-21.5-19.2-55.1
			c0.5-0.7,1.2-1.7,2-3.2C651.6,589.1,649.4,559.6,662.1,525.4z"/>
		<path class="st12" d="M440.8,271c-3-0.5-6-1-8.2-1.5c-5.2-1.2-14.5-1.2-18.5-1.5c-13.5-0.7-17,3.7-23.4,18
			c18.2-5.7,30.9-7.5,46.4-6.5c7,0.5,15,1.5,25.7,3.5c1.2-1.5,1.5-2.7,1.2-3.7C462.8,274.7,449.1,272.5,440.8,271z"/>
		<g>
			
				<ellipse transform="matrix(4.335830e-02 -0.9991 0.9991 4.335830e-02 102.7351 725.5254)" class="st13" cx="430.2" cy="309.1" rx="10.7" ry="10.7"/>
		</g>
		<path class="st12" d="M521.2,271.2c3-0.5,6-1.2,8.2-1.7c5.2-1.5,14.5-1.5,18.2-2c13.5-1.2,17,3.2,23.7,17.5
			c-18.2-5.5-31.2-7-46.6-5.5c-7,0.5-14.7,1.7-25.7,4c-1.2-1.5-1.5-2.7-1.2-3.7C499.2,275.5,512.9,273,521.2,271.2z"/>
		<g>
			
				<ellipse transform="matrix(0.9991 -4.336505e-02 4.336505e-02 0.9991 -12.9069 23.3568)" class="st13" cx="531.9" cy="309.2" rx="10.7" ry="10.7"/>
		</g>
		<path class="st12" d="M521.2,114.6l-0.7-0.5l-1.2-0.7l-3.7-2l-8.5-2.7c0,0-22.5,0-28.2-1.5c-108.3-24.7-149.4,157.4-172.4,241
			c-23.2,85.1-45.4,141.4-19.5,226.3c5,16,9.2,27.9,13.7,37.2c0.2,0.7,0.5,1.2,1,2c11.2,61.1,0.2,81.6,0.2,81.6s9.7-7.5,15.5-19.2
			c6.2,26.7,37.4,34.2,37.4,34.2s-22.5-26.4-6.2-56.9c6.7,3,14.2,6.7,22.9,11.2c7,4.5,12.2,7.5,12.2,7.5s-4-4.7-9.5-13.5
			c0.7-10.5,8.5-18.7,7.5-31.4c19,49.1,21.5,68.6,21.5,68.6s8.2-9.2,11.5-22c11.2,24.9,43.2,26.4,43.2,26.4s-27.4-22-17-55.1
			c0.5-1.5,0.5-3.2,0.5-5c16.7,10.5,37.2,17,37.2,17s-36.2-28.4-57.9-88.1c-6-26.4-5-53.4-18-101.3c-15.5-56.9-33.7-95.8-33.9-145.2
			C368.3,168.5,542.1,209.4,521.2,114.6z M373,605.5c0.2,0,0.2,0.2,0.5,0.2c0.2,0.5,0.2,0.7,0.5,1.2
			C373.5,606.5,373.2,606,373,605.5z"/>
	</g>
	<g>
		<g>
			<path class="st14" d="M439.1,422.7c-0.7-0.2-1-0.2-1-0.2s18.2,20,42.9,20l0,0v-10.2C459.3,431.9,443.3,424.9,439.1,422.7z"/>
			<path class="st5" d="M481,423.2c-11.7-0.2-26.2-0.5-43.2-1.2c0,0,0.5,0.2,1.2,0.7c4.2,1,21.2,4.5,41.9,4.7
				C481,427.4,481,423.2,481,423.2z"/>
			<path class="st5" d="M481,427.4c-21-0.2-37.7-3.7-41.9-4.7c4.5,2.2,20.5,9.2,41.9,9.5C481,432.1,481,427.4,481,427.4z"/>
		</g>
		<g>
			<path class="st14" d="M522.7,422.7c0.7-0.2,1-0.2,1-0.2s-18.2,20-42.9,20l0,0v-10.2C502.5,431.9,518.4,424.9,522.7,422.7z"/>
			<path class="st5" d="M480.8,423.2c11.7-0.2,26.2-0.5,43.2-1.2c0,0-0.5,0.2-1.2,0.7c-4.2,1-21.2,4.5-41.9,4.7V423.2z"/>
			<path class="st5" d="M480.8,427.4c21-0.2,37.7-3.7,41.9-4.7c-4.5,2.2-20.5,9.2-41.9,9.5V427.4z"/>
		</g>
		<g>
			<path class="st15" d="M480.8,427.4L480.8,427.4C480.8,427.4,481,427.4,480.8,427.4c0.2,0,0.2,0,0.2,0l0,0l0,0
				c10.7-0.2,43.2-5.2,43.2-5.2s-23.7-6.7-31.4-6c-3,0.2-11,3.5-12,3.7c-1-0.5-9-3.5-12-3.7c-7.7-0.7-31.4,6-31.4,6
				S470,427.2,480.8,427.4L480.8,427.4z"/>
			<path class="st15" d="M438.3,422.7c12,18.2,19.5,30.9,42.7,31.4l0,0c0,0,0,0,0.2,0c0,0,0,0,0.2,0l0,0
				c22.9-0.5,30.4-13.5,42.7-31.4c-15,8.2-25.9,16.5-42.7,17.2C464,439.1,453.3,430.9,438.3,422.7z"/>
		</g>
	</g>
	<g>
		<g>
			<path class="st1" d="M504,367.3h-22.5V396c0.2,0,0.2,0,0.5,0s0.2,0,0.5,0l0,0c0.5-0.2,1-0.2,1.2-0.5c0.2,0,0.2,0,0.5-0.2
				c1-0.5,2-1.2,3-2.5c0.7-0.7,1.2-1.5,1.7-2.2c1.5-2.2,3-4.5,7.5-5.7c1.2-0.2,2.5-0.2,3.7-0.2c1.7,0,3.2,0,4.5-0.7
				c2.5-1.5,4.7-4.2,4.7-6C509.9,373.5,506.4,369,504,367.3z"/>
			<path class="st1" d="M459.3,367.3c-2.5,1.7-4,6-4,10c0,1.7,0.5,5,3,6.5c1.2,0.7,2.7,0.7,4.5,0.7c1.2,0,2.5,0,3.7,0.2
				c4.5,1.2,6,3.5,7.5,5.7c0.5,0.7,1,1.5,1.7,2.2c1.2,1.2,2.2,2,3,2.5c0.2,0,0.2,0,0.5,0.2s0.7,0.5,1.2,0.5l0,0c0.2,0,0.2,0,0.5,0
				s0.2,0,0.5,0l9.5-31.4l-9.2-94L459.3,367.3z"/>
		</g>
		<path class="st16" d="M505.7,367.3c-0.7-0.5-1.5-0.2-2,0.2c-0.5,0.5-0.2,1.2,0.5,1.7c2.5,1.5,4,5,4,8.5c0,1.5-0.5,4.2-3,5.5
			c-1.2,0.7-2.7,0.7-4.5,0.7c-1.2,0-2.5,0-3.7,0.2c-4.5,1-6,3-7.5,5c-0.5,0.7-1,1.5-1.7,2c-1.2,1-2.2,1.7-3,2c-0.2,0-0.2,0-0.5,0
			c-0.2,0.2-0.7,0.2-1.2,0.5l0,0c-0.2,0-0.2,0-0.5,0s-0.2,0-0.5,0s-0.2,0-0.5,0s-0.2,0-0.5,0l0,0c-0.5,0-1-0.2-1.2-0.5
			c-0.2,0-0.2,0-0.5,0c-1-0.5-2-1-3-2c-0.7-0.5-1.2-1.2-1.7-2c-1.5-1.7-3-4-7.5-5c-1.2-0.2-2.5-0.2-3.7-0.2c-1.7,0-3.2,0-4.5-0.7
			c-2.5-1.2-3-4-3-5.5c-0.2-3.5,1.5-7.2,4-8.5c0.7-0.5,0.7-1.2,0.5-1.7c-0.5-0.5-1.2-0.7-2-0.2c-3.2,2-5.5,6.2-5.2,10.7
			c0.2,3.5,1.7,6.2,4.5,7.7c2,1,4,1,6,1c1,0,2.2,0,3.2,0.2c3.5,0.7,4.5,2.2,6,4c0.5,0.7,1.2,1.5,2,2.2c2.7,2.2,5.2,3.5,7.7,3.5l0,0
			l0,0c2.5,0,5-1.2,7.7-3.5c0.7-0.7,1.5-1.5,2-2.2c1.2-1.7,2.5-3.2,6-4c1-0.2,2-0.2,3.2-0.2c1.7,0,3.7,0,6-1
			c2.7-1.2,4.2-4.2,4.5-7.7C511.2,373.8,508.9,369.3,505.7,367.3z"/>
	</g>
</g>
</svg>
